<svg version="1.1" viewBox="0.0 0.0 600.0 371.0" fill="none" stroke="none" stroke-linecap="square" stroke-miterlimit="10" width="600" height="371" xmlns:xlink="http://www.w3.org/1999/xlink" xmlns="http://www.w3.org/2000/svg"><path fill="#ffffff" d="M0 0L600.0 0L600.0 371.0L0 371.0L0 0Z" fill-rule="nonzero"/><path stroke="#eeeeee" stroke-width="1.0" stroke-linecap="butt" d="M2.0 2.0L598.0 2.0" fill-rule="nonzero"/><path stroke="#eeeeee" stroke-width="1.0" stroke-linecap="butt" d="M2.0 93.75L598.0 93.75" fill-rule="nonzero"/><path stroke="#eeeeee" stroke-width="1.0" stroke-linecap="butt" d="M2.0 185.5L598.0 185.5" fill-rule="nonzero"/><path stroke="#eeeeee" stroke-width="1.0" stroke-linecap="butt" d="M2.0 277.25L598.0 277.25" fill-rule="nonzero"/><path stroke="#9e9e9e" stroke-width="1.0" stroke-linecap="butt" d="M2.0 369.0L598.0 369.0" fill-rule="nonzero"/><path fill="#9e9e9e" d="M237.21875 204.5L231.9375 204.5L211.90625 173.8125L211.90625 204.5L206.625 204.5L206.625 164.6875L211.90625 164.6875L232.0 195.5L232.0 164.6875L237.21875 164.6875L237.21875 204.5ZM244.48438 189.4375Q244.48438 185.07812 246.1875 181.60938Q247.90625 178.14062 250.95312 176.25Q254.0 174.35938 257.92188 174.35938Q263.95312 174.35938 267.6875 178.54688Q271.42188 182.73438 271.42188 189.67188L271.42188 190.03125Q271.42188 194.35938 269.76562 197.79688Q268.10938 201.21875 265.03125 203.14062Q261.96875 205.04688 257.96875 205.04688Q251.95312 205.04688 248.21875 200.85938Q244.48438 196.67188 244.48438 189.78125L244.48438 189.4375ZM249.57812 190.03125Q249.57812 194.95312 251.85938 197.9375Q254.14062 200.92188 257.96875 200.92188Q261.82812 200.92188 264.09375 197.90625Q266.35938 194.875 266.35938 189.4375Q266.35938 184.5625 264.04688 181.54688Q261.75 178.51562 257.92188 178.51562Q254.17188 178.51562 251.875 181.5Q249.57812 184.48438 249.57812 190.03125ZM290.59375 189.45312Q290.59375 182.65625 293.8125 178.51562Q297.04688 174.35938 302.28125 174.35938Q307.46875 174.35938 310.5 177.92188L310.5 162.5L315.5625 162.5L315.5625 204.5L310.92188 204.5L310.67188 201.32812Q307.64062 205.04688 302.21875 205.04688Q297.07812 205.04688 293.82812 200.84375Q290.59375 196.625 290.59375 189.84375L290.59375 189.45312ZM295.65625 190.03125Q295.65625 195.0625 297.73438 197.90625Q299.8125 200.75 303.48438 200.75Q308.29688 200.75 310.5 196.4375L310.5 182.84375Q308.23438 178.65625 303.53125 178.65625Q299.8125 178.65625 297.73438 181.53125Q295.65625 184.40625 295.65625 190.03125ZM342.09375 204.5Q341.65625 203.625 341.39062 201.375Q337.85938 205.04688 332.96875 205.04688Q328.59375 205.04688 325.78125 202.57812Q322.98438 200.09375 322.98438 196.29688Q322.98438 191.67188 326.5 189.125Q330.01562 186.5625 336.375 186.5625L341.29688 186.5625L341.29688 184.23438Q341.29688 181.57812 339.70312 180.01562Q338.125 178.4375 335.04688 178.4375Q332.32812 178.4375 330.5 179.8125Q328.67188 181.17188 328.67188 183.10938L323.57812 183.10938Q323.57812 180.90625 325.15625 178.84375Q326.73438 176.76562 329.42188 175.5625Q332.10938 174.35938 335.34375 174.35938Q340.45312 174.35938 343.34375 176.92188Q346.25 179.48438 346.35938 183.96875L346.35938 197.57812Q346.35938 201.65625 347.40625 204.0625L347.40625 204.5L342.09375 204.5ZM333.70312 200.64062Q336.07812 200.64062 338.20312 199.42188Q340.34375 198.1875 341.29688 196.21875L341.29688 190.14062L337.34375 190.14062Q328.04688 190.14062 328.04688 195.57812Q328.04688 197.96875 329.625 199.3125Q331.21875 200.64062 333.70312 200.64062ZM360.6875 167.75L360.6875 174.90625L366.21875 174.90625L366.21875 178.82812L360.6875 178.82812L360.6875 197.17188Q360.6875 198.95312 361.42188 199.84375Q362.17188 200.71875 363.95312 200.71875Q364.82812 200.71875 366.35938 200.39062L366.35938 204.5Q364.35938 205.04688 362.46875 205.04688Q359.07812 205.04688 357.35938 203.0Q355.64062 200.9375 355.64062 197.17188L355.64062 178.82812L350.25 178.82812L350.25 174.90625L355.64062 174.90625L355.64062 167.75L360.6875 167.75ZM390.09375 204.5Q389.65625 203.625 389.39062 201.375Q385.85938 205.04688 380.96875 205.04688Q376.59375 205.04688 373.78125 202.57812Q370.98438 200.09375 370.98438 196.29688Q370.98438 191.67188 374.5 189.125Q378.01562 186.5625 384.375 186.5625L389.29688 186.5625L389.29688 184.23438Q389.29688 181.57812 387.70312 180.01562Q386.125 178.4375 383.04688 178.4375Q380.32812 178.4375 378.5 179.8125Q376.67188 181.17188 376.67188 183.10938L371.57812 183.10938Q371.57812 180.90625 373.15625 178.84375Q374.73438 176.76562 377.42188 175.5625Q380.10938 174.35938 383.34375 174.35938Q388.45312 174.35938 391.34375 176.92188Q394.25 179.48438 394.35938 183.96875L394.35938 197.57812Q394.35938 201.65625 395.40625 204.0625L395.40625 204.5L390.09375 204.5ZM381.70312 200.64062Q384.07812 200.64062 386.20312 199.42188Q388.34375 198.1875 389.29688 196.21875L389.29688 190.14062L385.34375 190.14062Q376.04688 190.14062 376.04688 195.57812Q376.04688 197.96875 377.625 199.3125Q379.21875 200.64062 381.70312 200.64062Z" fill-rule="nonzero"/></svg>