<?xml version="1.0" standalone="no"?>
<!DOCTYPE svg PUBLIC "-//W3C//DTD SVG 20010904//EN"
 "http://www.w3.org/TR/2001/REC-SVG-20010904/DTD/svg10.dtd">
<svg version="1.0" xmlns="http://www.w3.org/2000/svg"
 width="1000.000000pt" height="1000.000000pt" viewBox="0 0 1000.000000 1000.000000"
 preserveAspectRatio="xMidYMid meet">
<metadata>
Created by potrace 1.14, written by Peter Selinger 2001-2017
</metadata>
<g transform="translate(0.000000,1000.000000) scale(0.100000,-0.100000)"
fill="#000000" stroke="none">
<path d="M4659 9381 c-5 -15 -79 -22 -79 -8 0 5 -5 5 -12 1 -6 -4 -25 -8 -42
-10 -17 -2 -54 -5 -83 -8 -28 -2 -69 -8 -90 -11 -21 -4 -52 -8 -69 -10 -18 -2
-40 -8 -51 -13 -11 -6 -25 -7 -33 -2 -8 5 -22 4 -33 -2 -18 -9 -62 -19 -99
-21 -10 -1 -18 -4 -18 -7 0 -5 -27 -10 -67 -13 -7 0 -13 -4 -13 -9 0 -5 -12
-6 -27 -4 -15 3 -33 0 -40 -6 -7 -6 -13 -7 -13 -3 0 5 -8 2 -17 -6 -10 -8 -29
-14 -43 -14 -14 0 -27 -3 -30 -7 -3 -3 -25 -9 -50 -13 -25 -4 -51 -11 -57 -17
-7 -5 -29 -11 -50 -12 -20 -2 -39 -8 -41 -15 -2 -6 -8 -9 -13 -5 -5 3 -9 1 -9
-5 0 -5 -9 -8 -20 -6 -11 2 -20 -1 -20 -7 0 -6 -9 -8 -20 -5 -11 3 -18 1 -14
-4 3 -5 -1 -9 -8 -10 -23 -1 -42 -7 -81 -23 -21 -9 -42 -14 -46 -11 -5 3 -11
-2 -15 -10 -3 -8 -16 -15 -30 -15 -14 0 -28 -5 -31 -11 -4 -6 -13 -8 -20 -5
-7 2 -16 -2 -19 -9 -3 -9 -12 -12 -22 -8 -11 4 -15 2 -11 -4 4 -6 0 -14 -9
-17 -9 -3 -12 -2 -8 5 3 6 -3 5 -15 -3 -12 -7 -21 -17 -21 -23 0 -5 -4 -4 -9
3 -7 11 -11 11 -24 -2 -8 -9 -25 -17 -36 -19 -11 -2 -24 -7 -28 -12 -5 -4 -2
-5 6 0 9 5 12 4 7 -3 -4 -6 -13 -9 -21 -5 -8 3 -15 0 -15 -6 0 -6 -6 -10 -12
-9 -7 2 -12 -2 -11 -8 1 -7 -6 -10 -17 -7 -11 3 -20 0 -20 -6 0 -6 -9 -11 -20
-11 -11 0 -20 -5 -20 -11 0 -5 -4 -7 -10 -4 -5 3 -10 1 -10 -5 0 -7 -7 -10
-15 -6 -8 3 -18 0 -22 -7 -11 -17 -76 -50 -68 -34 4 6 1 5 -7 -4 -7 -9 -17
-18 -23 -20 -5 -2 -9 -7 -8 -11 2 -4 -5 -4 -14 -1 -12 5 -14 3 -8 -7 6 -10 4
-12 -9 -7 -10 4 -15 3 -11 -3 3 -6 1 -10 -5 -10 -6 0 -9 -3 -7 -7 6 -10 -19
-34 -27 -26 -3 4 -6 1 -6 -6 0 -7 -5 -9 -12 -5 -7 5 -8 3 -3 -6 5 -8 -1 -20
-16 -32 -13 -11 -18 -16 -10 -12 9 5 12 3 7 -4 -4 -7 -15 -12 -24 -12 -15 0
-15 -2 -2 -10 13 -8 13 -10 -2 -10 -9 0 -20 -9 -23 -20 -3 -11 -11 -20 -17
-20 -5 0 -7 -7 -4 -16 3 -8 2 -12 -4 -9 -5 3 -15 -5 -21 -19 -7 -14 -20 -28
-30 -31 -10 -4 -18 -12 -16 -18 1 -7 -4 -11 -12 -9 -12 3 -12 1 -1 -15 8 -10
11 -15 6 -11 -11 9 -39 -19 -32 -31 3 -5 -1 -12 -10 -15 -8 -3 -12 -2 -9 4 10
16 -1 11 -16 -7 -10 -11 -10 -14 -1 -9 20 12 14 -5 -10 -25 -11 -11 -18 -19
-14 -19 7 0 -5 -17 -39 -52 -11 -11 -14 -18 -8 -14 9 5 11 2 7 -8 -3 -9 -10
-13 -15 -10 -5 3 -9 -2 -9 -10 0 -9 -5 -16 -10 -16 -6 0 -16 -12 -23 -27 -6
-16 -18 -33 -26 -39 -8 -6 -11 -16 -7 -23 5 -7 2 -10 -6 -9 -7 2 -12 -5 -12
-14 1 -10 -3 -16 -10 -15 -6 1 -10 -6 -10 -15 1 -10 -3 -16 -9 -15 -6 1 -11
-3 -12 -10 0 -7 -9 -19 -20 -27 -11 -8 -17 -18 -12 -22 4 -4 7 -2 7 4 0 7 6
12 13 12 6 0 0 -11 -15 -24 -15 -13 -24 -27 -21 -30 4 -3 1 -6 -5 -6 -6 0 -18
-13 -27 -30 -9 -16 -13 -30 -9 -30 3 0 -2 -8 -13 -17 -10 -10 -12 -13 -3 -8
13 9 13 8 1 -7 -7 -10 -21 -18 -30 -18 -13 0 -14 -2 -2 -9 12 -8 11 -13 -10
-31 -13 -12 -17 -18 -9 -14 12 7 13 5 3 -8 -7 -8 -9 -19 -5 -23 4 -5 1 -5 -5
-1 -7 4 -13 2 -13 -4 0 -6 -5 -8 -12 -4 -9 5 -9 2 1 -9 11 -15 11 -17 -2 -17
-11 0 -13 -6 -9 -22 3 -13 1 -19 -5 -15 -6 4 -17 -1 -24 -10 -10 -12 -10 -14
-1 -9 6 4 12 3 12 -3 0 -5 -4 -11 -9 -13 -5 -1 -11 -10 -13 -18 -4 -20 -21
-39 -30 -33 -4 2 -5 -3 -2 -11 4 -9 0 -18 -9 -22 -9 -3 -13 -12 -10 -20 3 -8
0 -14 -7 -14 -6 0 -8 -4 -5 -10 3 -5 1 -10 -4 -10 -6 0 -11 -7 -11 -16 0 -9
-5 -12 -12 -8 -8 5 -8 2 1 -10 11 -13 11 -16 2 -14 -8 2 -15 -6 -17 -16 -1
-10 -9 -23 -16 -27 -11 -7 -11 -9 0 -9 7 0 10 -5 7 -10 -4 -6 -11 -7 -17 -4
-6 4 -9 1 -6 -7 2 -7 -1 -25 -8 -38 -7 -14 -11 -28 -9 -32 3 -4 -2 -10 -11
-13 -8 -3 -13 -10 -10 -15 4 -5 0 -16 -8 -24 -8 -8 -12 -17 -9 -21 4 -3 1 -6
-5 -6 -6 0 -9 -7 -5 -17 4 -11 3 -14 -5 -9 -7 4 -12 1 -12 -8 0 -8 -5 -27 -12
-43 -6 -15 -11 -31 -10 -35 1 -5 -6 -8 -16 -9 -9 0 -12 -3 -5 -5 8 -4 4 -19
-14 -51 -14 -25 -20 -42 -13 -38 9 6 9 2 1 -14 -7 -11 -16 -21 -22 -21 -6 0
-7 -5 -4 -10 4 -6 1 -17 -5 -25 -6 -8 -9 -18 -6 -24 3 -5 -1 -12 -10 -15 -9
-3 -14 -12 -11 -19 2 -6 -2 -20 -11 -29 -11 -14 -12 -18 -2 -18 10 0 9 -5 -3
-18 -10 -10 -14 -22 -11 -25 4 -4 2 -13 -4 -20 -7 -8 -9 -17 -5 -20 3 -4 2 -7
-3 -7 -5 0 -11 -10 -11 -22 -1 -13 -7 -24 -13 -26 -5 -2 -8 -8 -4 -13 3 -5 -2
-23 -10 -41 -19 -37 -20 -41 -5 -33 6 4 5 -2 -2 -13 -7 -12 -16 -19 -20 -16
-4 2 -6 -7 -3 -20 2 -14 0 -28 -6 -31 -5 -3 -10 -15 -10 -26 0 -10 -6 -19 -12
-19 -9 0 -8 -4 2 -10 11 -7 11 -10 2 -10 -7 0 -11 -4 -8 -8 2 -4 1 -14 -4 -22
-5 -9 -4 -20 3 -29 9 -12 9 -13 0 -7 -11 6 -16 -2 -15 -24 0 -3 -11 -14 -26
-24 -16 -12 -23 -14 -18 -5 4 8 1 6 -7 -3 -8 -10 -17 -15 -20 -11 -4 3 -9 -2
-13 -11 -3 -9 -11 -13 -17 -9 -5 3 -16 -3 -24 -13 -8 -10 -17 -19 -21 -19 -4
0 -6 -3 -5 -7 2 -4 -4 -5 -12 -2 -8 4 -15 1 -15 -6 0 -7 -6 -10 -14 -7 -8 3
-17 -1 -20 -9 -3 -8 -10 -13 -15 -12 -5 2 -17 -6 -26 -17 -9 -11 -14 -14 -10
-7 10 20 -4 14 -30 -13 -16 -18 -25 -22 -28 -13 -3 8 -6 6 -6 -5 -1 -10 -6
-15 -11 -12 -6 3 -10 1 -10 -5 0 -6 -5 -8 -10 -5 -6 3 -10 -1 -10 -10 0 -9 -4
-14 -9 -11 -5 3 -12 -1 -15 -10 -3 -8 -10 -12 -16 -9 -5 3 -10 1 -10 -5 0 -6
-4 -9 -9 -6 -5 3 -15 -2 -22 -12 -13 -15 -12 -16 4 -3 9 7 17 9 17 3 0 -12
-29 -24 -40 -17 -5 3 -7 -3 -5 -14 3 -14 -1 -18 -11 -14 -9 3 -14 0 -12 -8 2
-7 -3 -13 -10 -14 -7 0 -18 -11 -25 -25 -7 -14 -20 -24 -29 -24 -11 1 -14 -4
-11 -14 4 -10 2 -13 -5 -8 -11 7 -17 -6 -13 -27 1 -5 -3 -6 -9 -2 -5 3 -10 1
-10 -5 0 -6 -4 -8 -10 -5 -9 6 -14 -8 -11 -28 1 -5 -3 -6 -9 -2 -5 3 -13 -1
-16 -9 -3 -9 -9 -14 -14 -11 -4 2 -20 -10 -36 -28 -28 -31 -28 -31 -2 -8 37
32 41 23 6 -11 -15 -15 -28 -25 -28 -22 0 3 -6 -1 -14 -8 -7 -7 -12 -18 -9
-24 2 -6 -6 -14 -17 -17 -12 -3 -19 -10 -15 -16 3 -6 0 -14 -9 -17 -9 -3 -12
-12 -9 -21 4 -11 2 -14 -5 -9 -7 4 -12 1 -12 -9 0 -8 -7 -18 -15 -21 -8 -4
-13 -10 -10 -14 9 -14 -17 -59 -38 -66 -16 -5 -17 -8 -6 -15 12 -7 12 -9 0 -9
-7 0 -11 -6 -7 -15 3 -8 2 -14 -2 -12 -4 1 -8 -2 -9 -7 -1 -5 -7 -13 -15 -17
-10 -7 -10 -9 0 -9 8 0 6 -8 -7 -22 -11 -11 -18 -25 -15 -30 3 -4 0 -8 -6 -8
-7 0 -10 -7 -6 -15 3 -8 0 -14 -7 -12 -7 1 -11 -6 -9 -15 2 -10 -2 -18 -8 -18
-6 0 -10 -6 -9 -12 2 -20 -13 -58 -21 -53 -4 2 -6 -7 -4 -20 1 -14 -2 -25 -7
-25 -5 0 -9 -13 -9 -28 0 -15 -5 -33 -12 -40 -9 -9 -9 -12 2 -12 11 0 12 -2 3
-8 -6 -4 -14 -19 -16 -32 -2 -14 -7 -33 -11 -42 -4 -9 -5 -22 -2 -27 4 -6 -2
-8 -15 -6 -18 4 -19 2 -7 -12 9 -12 9 -15 1 -9 -10 6 -13 -65 -12 -341 0 -191
4 -357 9 -368 5 -11 9 -15 9 -10 1 6 5 4 10 -4 5 -8 7 -24 5 -37 -2 -12 0 -26
6 -29 5 -3 10 -17 10 -31 0 -13 4 -24 8 -24 4 0 8 -8 9 -17 2 -47 8 -73 16
-73 4 0 5 -4 2 -10 -3 -5 -1 -10 6 -10 8 0 7 -5 -2 -17 -10 -12 -10 -14 -1 -9
7 4 14 0 18 -11 3 -10 10 -26 15 -35 5 -10 9 -25 9 -33 0 -8 5 -15 11 -15 5 0
8 -4 4 -9 -3 -5 2 -16 10 -24 8 -9 15 -23 15 -32 0 -10 5 -13 13 -9 8 5 8 2
-2 -9 -8 -11 -9 -17 -2 -17 11 0 54 -80 46 -88 -2 -2 6 -13 18 -23 12 -10 18
-18 13 -19 -5 0 1 -9 13 -19 16 -14 18 -21 9 -24 -8 -4 -7 -6 5 -6 9 -1 16 -6
15 -13 -2 -7 2 -12 9 -13 16 0 29 -15 14 -15 -7 0 -9 -5 -6 -10 4 -6 12 -7 18
-3 7 4 6 -1 -2 -10 -12 -15 -12 -17 3 -11 11 4 16 1 16 -10 0 -9 4 -16 9 -16
5 0 13 -9 16 -20 3 -11 14 -20 23 -20 14 0 14 -2 3 -9 -11 -7 -9 -10 8 -16 19
-6 20 -9 9 -23 -8 -10 -9 -13 -1 -9 6 4 14 3 18 -3 4 -6 11 -8 16 -5 5 3 6 -2
2 -11 -4 -12 -3 -15 5 -10 7 4 12 2 12 -4 0 -6 4 -8 10 -5 6 4 7 -1 3 -11 -5
-13 -3 -15 7 -9 10 6 12 4 6 -10 -6 -16 -4 -16 11 -4 9 8 14 9 10 2 -4 -7 1
-14 12 -18 12 -4 18 -12 14 -21 -4 -12 7 -19 29 -15 4 0 10 -8 13 -19 4 -11
13 -20 21 -20 8 0 12 -4 9 -10 -3 -5 -1 -10 4 -10 26 0 51 -20 51 -40 0 -6 5
-8 10 -5 5 3 10 1 10 -4 0 -6 7 -11 15 -11 8 0 15 -4 15 -10 0 -5 6 -10 13
-10 7 0 19 -9 27 -20 8 -11 24 -20 35 -20 16 0 17 -2 5 -10 -12 -8 -11 -10 8
-10 12 0 22 -5 22 -11 0 -5 5 -7 10 -4 6 3 10 -1 10 -9 0 -9 9 -16 21 -16 11
0 17 -4 14 -10 -3 -6 1 -7 9 -4 9 3 16 1 16 -5 0 -6 7 -8 15 -5 8 4 15 1 15
-5 0 -6 7 -11 15 -11 8 0 15 -5 15 -11 0 -5 4 -8 9 -5 5 4 12 0 14 -6 4 -10 6
-10 6 0 1 8 8 6 23 -7 11 -11 25 -18 29 -15 4 2 13 -4 19 -15 6 -12 16 -18 25
-15 8 4 27 -2 41 -11 18 -11 24 -12 18 -4 -6 11 -5 12 8 2 8 -7 18 -10 21 -6
4 3 7 1 7 -6 0 -7 4 -10 9 -6 6 3 14 -3 20 -12 6 -11 11 -13 11 -5 0 10 4 10
23 0 12 -7 33 -14 47 -16 13 -2 27 -7 30 -11 3 -5 13 -7 23 -5 9 1 17 -1 17
-5 0 -5 11 -6 25 -3 14 2 25 0 25 -5 0 -5 8 -9 18 -9 70 -4 112 -9 112 -14 0
-12 484 -7 492 4 5 7 8 5 8 -4 0 -11 2 -12 8 -3 4 7 27 14 50 15 23 2 42 7 42
12 0 4 11 6 25 4 14 -3 28 -1 31 4 3 4 9 6 14 3 5 -3 11 -1 15 4 3 5 14 8 25
6 11 -2 20 1 20 6 0 6 5 7 10 4 6 -4 17 -1 25 5 8 6 19 9 25 5 5 -3 10 -2 10
3 0 14 40 22 40 9 1 -7 6 -3 13 8 7 12 19 20 27 20 8 0 20 6 27 15 9 11 12 12
13 2 0 -10 4 -9 16 2 8 9 20 13 26 10 6 -4 16 0 22 8 12 16 46 32 60 29 5 -1
12 3 16 9 4 6 16 12 28 13 17 1 19 4 9 16 -9 11 -9 13 0 8 13 -8 63 12 63 25
0 4 7 8 16 8 9 0 12 5 8 12 -5 7 -3 8 6 3 7 -4 15 -3 19 3 3 6 13 12 21 14 8
2 21 10 28 18 10 11 12 11 6 1 -5 -10 -3 -12 5 -7 7 5 10 15 7 23 -3 8 -1 11
4 8 5 -3 17 3 27 15 10 11 23 20 31 20 7 0 10 5 6 12 -4 6 -3 8 4 4 6 -3 13
-2 17 4 4 6 11 8 16 5 5 -4 9 -1 9 5 0 6 5 8 13 4 7 -5 6 0 -3 11 -8 10 -10
16 -3 12 6 -4 14 -3 18 3 4 6 11 7 17 4 6 -4 8 -3 5 2 -8 13 9 39 25 39 7 0
12 8 12 17 -1 10 4 14 12 11 12 -5 19 7 15 29 0 4 7 4 16 1 11 -4 14 -3 9 6
-5 8 -2 11 9 9 11 -2 19 4 21 16 1 10 8 24 15 30 9 8 10 7 4 -4 -8 -13 -7 -13
9 -1 9 8 14 21 11 29 -4 12 -3 13 10 2 13 -11 14 -10 9 3 -3 10 4 22 20 32 14
10 24 20 22 24 -2 3 3 15 11 26 15 19 15 19 9 1 -5 -16 -4 -17 9 -6 12 10 13
16 3 29 -7 9 -9 13 -4 9 8 -7 40 18 42 34 1 4 3 11 4 16 1 4 2 11 1 15 -1 5 3
6 8 3 5 -4 12 -2 16 4 3 5 0 10 -7 11 -7 0 -3 5 10 11 12 6 22 17 22 24 0 7
10 23 23 35 12 12 15 18 7 14 -12 -7 -11 -4 2 11 9 10 17 22 18 26 8 35 14 48
22 48 6 0 7 7 4 16 -3 8 -2 12 4 9 9 -6 14 8 11 27 0 5 4 8 10 8 5 0 7 5 4 10
-3 5 -1 10 6 10 7 0 9 3 6 7 -4 3 -2 12 4 20 6 7 8 13 5 13 -4 0 3 14 15 32
13 17 16 28 8 23 -12 -8 -12 -7 0 9 8 9 16 29 17 44 2 15 8 28 14 30 7 3 7 9
-2 20 -10 12 -10 14 0 8 7 -4 12 -1 12 8 0 9 4 16 8 16 4 0 7 16 7 35 -1 20 2
32 8 28 6 -4 8 3 5 15 -4 12 -2 22 3 22 5 0 7 11 5 24 -2 13 -2 27 2 30 8 9
13 34 14 76 1 19 5 38 11 41 13 9 10 444 -3 444 -1 0 -4 18 -5 40 -3 35 -10
87 -20 135 -2 8 -4 19 -4 23 -1 5 -5 6 -10 3 -5 -4 -7 7 -5 24 4 20 1 30 -8
30 -11 0 -11 2 0 9 11 6 10 12 -5 26 -10 10 -16 20 -14 22 2 2 0 14 -4 26 -4
12 -8 31 -9 41 -2 11 -8 22 -14 24 -7 2 -12 8 -12 13 0 6 6 7 13 4 6 -4 5 -1
-4 7 -9 7 -14 19 -12 26 3 6 0 12 -6 12 -6 0 -11 11 -11 25 0 14 -7 28 -15 31
-8 4 -12 10 -9 15 3 5 0 9 -5 9 -6 0 -11 5 -11 11 0 5 5 7 11 3 6 -3 3 5 -6
20 -9 14 -21 23 -26 20 -5 -3 -6 3 -2 12 4 10 0 22 -11 30 -10 6 -17 16 -18
21 0 4 -5 7 -11 5 -7 -2 -9 0 -5 3 4 4 1 20 -7 35 -8 15 -11 30 -8 34 4 3 1 6
-6 6 -7 0 -9 5 -6 10 4 6 1 9 -7 8 -7 -2 -14 7 -16 20 -2 12 -8 20 -13 17 -5
-4 -9 3 -9 15 0 12 -4 18 -10 15 -9 -6 -15 17 -10 40 1 6 -1 7 -5 3 -10 -9
-55 37 -55 57 0 8 -7 15 -15 15 -9 0 -19 8 -22 18 -4 9 -16 26 -26 37 -11 11
-16 13 -12 5 4 -8 -7 -1 -24 15 -18 17 -37 40 -42 53 -5 12 -20 27 -33 32 -13
5 -28 15 -32 22 -5 9 -2 8 12 -2 18 -14 18 -14 5 3 -8 10 -20 16 -28 13 -8 -3
-11 -1 -8 4 3 5 1 18 -5 27 -10 16 -11 16 -6 -2 5 -18 4 -17 -14 4 -11 13 -20
20 -20 16 0 -4 -8 1 -17 12 -10 10 -16 14 -13 8 3 -6 -3 -3 -12 8 -10 10 -22
16 -27 13 -5 -4 -12 3 -16 14 -3 11 -13 20 -22 20 -8 0 -17 9 -20 19 -3 13
-12 18 -24 16 -10 -2 -19 1 -19 6 0 6 -4 7 -10 4 -5 -3 -10 -1 -10 4 0 6 -7
11 -15 11 -8 0 -15 5 -15 10 0 6 -5 10 -11 10 -7 0 -18 8 -25 18 -9 11 -13 13
-14 4 0 -7 -5 -10 -10 -7 -6 4 -7 11 -4 17 4 6 2 8 -4 4 -6 -3 -14 -1 -17 5
-4 5 -14 8 -22 5 -8 -3 -11 -2 -8 3 5 9 -32 27 -47 23 -5 -1 -8 3 -8 9 0 5 -4
8 -9 5 -5 -4 -11 -1 -13 4 -2 6 -14 12 -28 13 -14 0 -30 8 -36 16 -6 8 -24 16
-40 17 -49 6 -54 7 -54 15 0 5 -7 5 -17 2 -9 -4 -14 -2 -10 3 3 6 -12 11 -36
11 -23 1 -43 7 -45 12 -2 5 -9 8 -17 5 -7 -3 -16 0 -20 6 -6 9 -10 9 -16 -1
-6 -10 -9 -11 -9 -1 0 6 -9 12 -21 12 -11 0 -26 6 -32 13 -16 16 -21 57 -7 57
6 0 8 5 5 10 -3 6 -1 10 5 10 6 0 9 4 5 9 -3 5 0 13 6 16 5 4 8 13 5 21 -3 8
-1 14 5 14 6 0 8 4 4 9 -3 5 -1 12 5 16 6 4 8 10 5 15 -3 4 2 13 10 20 8 7 12
16 9 21 -3 5 0 9 6 9 6 0 9 4 5 9 -3 5 -1 12 5 16 6 4 8 11 5 16 -4 5 -2 9 4
9 6 0 8 7 5 15 -4 8 -1 15 6 15 6 0 8 5 5 10 -3 6 -1 10 5 10 6 0 8 5 5 10 -3
6 -1 10 5 10 6 0 8 5 5 10 -3 6 -1 10 5 10 6 0 9 4 6 9 -3 4 1 16 8 27 8 10
12 24 9 31 -3 7 0 13 7 13 6 0 8 5 5 10 -3 6 -2 10 4 10 10 0 27 38 23 53 -1
4 2 7 7 7 5 0 12 11 15 25 4 14 11 23 16 20 6 -3 7 1 4 9 -3 9 -1 16 6 16 6 0
9 4 5 9 -3 5 0 15 7 23 7 7 14 20 16 28 2 8 8 18 14 21 5 3 9 9 9 13 -3 20 0
26 11 20 6 -4 8 -3 5 4 -9 13 2 44 13 37 4 -3 11 2 14 11 4 10 2 13 -7 9 -6
-4 -4 0 6 8 9 8 17 22 17 31 0 9 5 16 11 16 5 0 7 5 4 10 -3 6 -1 10 4 10 6 0
11 7 11 16 0 11 5 14 16 10 14 -5 15 -4 5 8 -10 12 -8 17 10 26 17 10 19 14 8
21 -10 6 -11 9 -1 9 6 0 12 6 12 14 0 8 5 18 12 22 7 5 8 3 3 -6 -5 -9 -4 -11
4 -6 7 4 10 13 8 19 -2 7 2 18 10 25 7 8 11 18 8 23 -4 5 1 9 9 9 9 0 13 7 11
20 -2 11 1 19 8 17 7 -1 11 6 11 16 -2 14 1 15 11 7 11 -9 12 -7 8 8 -2 11 1
23 8 27 8 6 10 4 4 -5 -5 -9 -4 -11 4 -6 6 4 9 11 6 16 -3 5 -1 11 5 15 6 4 7
11 4 17 -4 7 -2 8 4 4 7 -4 12 -2 12 4 0 6 5 8 13 4 9 -6 9 -4 -1 8 -10 13
-10 18 -1 24 8 5 9 3 4 -6 -6 -9 -4 -11 4 -6 7 5 10 15 7 23 -3 8 -2 12 2 10
10 -7 32 19 24 29 -4 4 2 4 12 0 15 -5 17 -4 7 8 -9 11 -8 15 4 20 8 3 15 12
15 20 0 8 5 18 12 22 7 5 8 3 3 -6 -5 -8 -4 -11 1 -7 5 3 20 25 32 49 11 24
33 54 47 66 14 13 23 28 19 34 -5 7 -2 9 9 5 12 -4 14 -2 10 10 -5 12 -3 14 7
8 10 -6 12 -4 7 9 -4 10 -3 15 3 11 6 -3 10 1 10 9 0 9 6 15 13 14 7 -2 11 5
9 16 -2 10 1 16 5 13 5 -3 17 5 27 18 10 14 23 22 29 18 6 -3 7 -1 3 5 -4 7
-2 12 4 12 6 0 9 4 6 9 -3 5 1 12 10 15 9 3 14 13 11 21 -4 10 -1 12 10 8 13
-5 15 -2 10 11 -4 10 -3 15 3 11 6 -3 13 1 16 9 3 9 10 13 15 10 5 -3 9 2 9
10 0 8 9 20 20 26 11 6 19 14 19 18 -3 17 2 32 9 29 4 -1 8 2 9 8 1 5 11 12
22 17 12 4 21 15 21 24 0 13 3 14 15 4 12 -10 13 -8 10 10 -3 16 0 20 10 16 9
-3 12 0 9 8 -3 8 0 17 7 22 8 5 10 3 4 -7 -8 -12 -6 -12 8 0 9 7 14 18 10 24
-4 6 0 8 10 4 9 -3 16 -3 16 1 -3 18 2 33 9 28 4 -2 14 -1 22 5 13 7 13 9 0 9
-9 1 -6 5 8 10 12 5 22 17 22 25 0 9 5 13 10 10 6 -3 10 -2 10 4 0 6 7 8 15 5
8 -4 15 -1 15 5 0 6 5 11 11 11 5 0 7 -6 3 -12 -5 -8 0 -7 11 2 10 8 27 14 38
12 11 -2 17 1 13 7 -4 6 6 9 28 8 21 -2 32 1 30 8 -3 6 3 11 13 12 46 2 73 8
73 15 0 4 7 5 15 2 8 -4 15 -1 15 6 0 10 3 10 15 0 10 -9 15 -9 15 -1 0 6 16
11 35 11 19 0 35 4 35 8 0 4 8 8 18 9 53 2 92 8 92 13 0 3 10 7 23 7 12 1 36
4 52 7 17 3 49 7 71 10 23 2 50 9 61 14 11 6 25 7 33 2 8 -5 22 -4 32 1 12 6
18 6 18 0 0 -7 8 -7 24 -1 13 5 27 6 30 3 3 -4 6 -2 6 3 0 14 744 11 762 -2 7
-6 28 -9 46 -7 19 1 43 -2 54 -8 16 -8 19 -8 13 1 -6 9 -3 9 13 1 12 -6 39
-10 62 -8 29 3 44 -1 50 -12 8 -14 9 -14 10 -1 0 9 3 11 8 5 4 -6 23 -11 42
-11 19 0 34 -5 33 -10 -1 -5 21 -9 49 -9 27 1 52 -3 54 -7 3 -4 16 -8 30 -8
14 0 35 -5 46 -11 16 -9 19 -8 12 3 -6 10 -5 11 8 1 8 -7 27 -14 42 -15 14 -1
26 -6 26 -10 0 -4 9 -5 20 -3 11 2 20 0 20 -5 0 -5 7 -7 15 -4 8 4 15 2 15 -3
0 -8 15 -12 58 -15 6 -1 12 -5 12 -9 0 -4 9 -6 19 -4 11 2 27 -3 38 -10 10 -8
28 -15 41 -15 12 0 22 -4 22 -8 0 -4 8 -8 18 -9 25 -2 45 -7 59 -16 7 -5 23
-10 35 -12 12 -3 24 -8 27 -13 3 -5 14 -8 24 -6 9 1 17 -2 17 -7 0 -6 5 -7 10
-4 6 3 10 1 10 -5 0 -6 5 -8 10 -5 6 3 10 1 10 -4 0 -6 11 -11 24 -11 13 0 27
-6 29 -12 4 -10 6 -10 6 0 1 10 4 10 15 0 8 -7 11 -17 8 -23 -3 -5 2 -4 11 4
14 11 18 11 23 -3 3 -9 10 -13 15 -10 5 3 9 1 9 -4 0 -5 7 -9 15 -10 8 -1 22
-3 30 -4 8 -1 15 -5 15 -10 0 -4 7 -8 15 -8 8 0 15 -4 15 -9 0 -6 9 -8 19 -6
13 2 18 -1 15 -9 -4 -9 3 -13 20 -11 15 2 24 -1 20 -6 -5 -8 9 -13 29 -10 4 0
7 -4 7 -11 0 -6 3 -9 6 -5 4 3 13 -1 21 -9 8 -8 18 -12 23 -9 4 3 10 -2 14
-10 3 -8 12 -15 19 -15 8 0 20 -7 27 -15 7 -8 21 -15 31 -15 11 0 19 -7 20
-17 0 -10 3 -13 5 -6 3 7 12 9 20 6 7 -3 11 -9 8 -14 -5 -8 18 -14 39 -10 5 1
6 -3 2 -9 -3 -5 1 -10 10 -10 8 0 18 -6 21 -14 3 -8 12 -12 20 -9 9 3 14 -2
14 -13 0 -16 2 -17 10 -4 8 13 10 12 10 -2 0 -12 8 -18 21 -18 15 0 19 -4 15
-16 -5 -14 -4 -15 9 -4 12 10 15 10 15 -4 0 -14 11 -21 33 -17 4 0 7 -3 7 -9
0 -5 9 -10 19 -10 11 0 23 -5 27 -12 5 -7 2 -9 -7 -3 -8 4 0 -4 16 -19 17 -14
34 -25 38 -26 5 0 5 -5 1 -12 -4 -6 -3 -8 4 -5 14 9 43 -3 36 -14 -3 -5 2 -9
11 -9 10 0 13 -5 9 -12 -4 -6 -3 -8 4 -4 6 3 17 -1 25 -9 9 -8 20 -15 26 -15
5 0 19 -13 31 -30 12 -16 26 -29 33 -27 7 1 11 -4 9 -11 -1 -6 1 -11 5 -11 21
3 33 -2 33 -15 0 -7 8 -20 18 -27 16 -13 16 -13 2 6 -14 19 -14 19 3 6 9 -7
17 -21 18 -30 0 -10 2 -11 6 -4 3 10 9 8 21 -4 9 -9 17 -19 17 -22 -1 -13 55
-52 65 -46 6 4 9 1 8 -7 -2 -7 3 -12 11 -10 12 3 12 0 1 -12 -10 -13 -10 -16
4 -16 10 0 14 -4 11 -10 -3 -5 3 -10 15 -10 12 0 18 -4 15 -10 -3 -5 -1 -10 5
-10 12 0 40 -24 40 -35 0 -3 -5 -3 -12 1 -7 4 -8 3 -4 -5 4 -6 11 -9 16 -6 5
3 11 1 15 -5 4 -6 12 -7 18 -3 7 4 6 0 -2 -10 -12 -15 -11 -17 8 -17 12 0 19
-4 16 -10 -3 -5 -1 -10 5 -10 6 0 21 -9 33 -21 20 -19 21 -20 2 -13 -11 4 -18
5 -15 3 44 -37 53 -42 46 -29 -5 9 -2 8 7 -2 8 -10 18 -14 23 -10 4 4 3 0 -4
-10 -11 -14 -10 -17 7 -23 12 -3 21 -13 21 -21 0 -8 5 -14 10 -14 6 0 10 -7
10 -16 0 -8 3 -13 8 -11 9 6 33 -19 25 -27 -4 -3 1 -6 10 -6 9 0 17 -6 17 -14
0 -7 7 -19 15 -26 8 -7 12 -16 9 -21 -3 -5 3 -6 12 -2 14 5 16 3 11 -11 -4
-10 -3 -15 3 -11 6 3 10 0 10 -8 0 -8 10 -22 23 -31 12 -9 16 -14 10 -11 -9 4
-11 1 -7 -10 4 -9 13 -14 21 -10 10 3 13 1 10 -9 -4 -11 -1 -13 10 -9 12 5 14
3 8 -7 -5 -8 1 -20 16 -32 13 -11 18 -17 12 -13 -9 4 -11 1 -7 -9 3 -9 9 -14
13 -12 8 5 31 -20 24 -28 -3 -3 2 -8 11 -12 9 -3 13 -10 10 -15 -3 -5 2 -12
11 -15 13 -5 13 -9 3 -23 -7 -9 -8 -13 -4 -9 5 4 15 3 23 -3 16 -14 18 -33 1
-23 -7 4 -8 3 -4 -4 4 -6 14 -8 23 -5 10 4 14 2 10 -4 -4 -6 2 -21 13 -33 11
-12 17 -27 14 -31 -3 -5 2 -9 10 -9 10 0 13 -6 9 -17 -4 -9 -2 -14 3 -11 5 3
18 -6 28 -20 11 -14 14 -22 8 -18 -7 4 -12 2 -12 -3 0 -6 7 -11 16 -11 14 0
15 -2 3 -17 -10 -11 -10 -14 -1 -9 7 4 12 1 12 -8 0 -9 5 -16 10 -16 6 0 10
-7 10 -16 0 -8 5 -12 10 -9 9 5 15 -24 11 -48 -1 -5 3 -6 8 -3 5 4 12 2 16 -4
3 -5 0 -10 -7 -10 -7 -1 -2 -7 12 -15 15 -9 19 -15 10 -15 -13 -1 -13 -2 0
-13 8 -7 16 -19 18 -27 2 -8 7 -17 10 -20 4 -3 9 -14 10 -25 2 -10 11 -25 20
-33 10 -7 11 -11 5 -7 -19 9 -16 1 12 -31 14 -16 23 -35 20 -41 -2 -7 0 -13 6
-13 6 0 8 -7 5 -15 -3 -9 1 -18 10 -22 13 -5 13 -7 2 -14 -11 -7 -11 -9 1 -9
8 0 11 -6 7 -16 -3 -8 -2 -12 4 -9 6 3 10 -1 10 -10 0 -9 4 -14 9 -11 5 4 8
-2 6 -11 -1 -10 2 -23 7 -30 5 -7 6 -18 2 -24 -4 -8 -3 -9 4 -5 7 4 12 1 12
-9 0 -10 5 -13 13 -9 9 6 9 5 0 -7 -10 -13 2 -54 38 -122 5 -10 7 -22 4 -27
-3 -5 -1 -11 4 -15 5 -3 8 -14 6 -25 -2 -12 0 -18 6 -15 5 4 9 -2 9 -12 0 -11
6 -25 13 -32 9 -11 9 -12 0 -7 -9 5 -11 2 -7 -8 3 -9 9 -14 13 -12 4 3 7 -3 8
-12 2 -34 15 -77 26 -91 10 -12 9 -13 -2 -6 -11 6 -12 5 -5 -6 9 -14 14 -34
16 -56 1 -7 5 -13 10 -13 5 0 7 -4 4 -8 -3 -4 0 -26 5 -48 20 -81 22 -90 22
-111 1 -13 4 -23 9 -23 4 0 5 -6 2 -14 -3 -8 -1 -16 3 -19 5 -3 8 -26 7 -51
-1 -25 2 -43 7 -40 7 4 15 -69 10 -98 0 -5 3 -8 7 -8 5 0 9 -24 10 -52 0 -29
3 -64 7 -78 4 -14 8 -64 8 -112 1 -48 6 -84 11 -81 5 3 7 -6 4 -21 -3 -14 -2
-26 1 -26 8 0 5 -94 -3 -115 -3 -8 -2 -15 2 -15 4 0 7 -16 7 -35 0 -19 -3 -35
-6 -35 -4 0 -4 -15 0 -32 8 -44 7 -70 -4 -87 -4 -8 -9 -69 -10 -136 -1 -67 -6
-128 -10 -135 -5 -8 -9 -39 -9 -70 -1 -30 -4 -59 -7 -65 -3 -5 -7 -32 -8 -60
-2 -27 -8 -56 -14 -64 -10 -12 -9 -13 3 -6 12 7 13 6 4 -6 -6 -8 -11 -23 -12
-34 -2 -21 -9 -58 -12 -62 -2 -2 -3 -6 -5 -10 -9 -33 -15 -63 -20 -93 -12 -70
-13 -75 -15 -75 -2 0 -6 -18 -15 -65 -3 -19 -12 -45 -20 -57 -11 -16 -12 -23
-2 -26 9 -4 9 -6 0 -6 -8 -1 -13 -14 -13 -32 0 -16 -4 -28 -8 -25 -4 2 -8 -3
-8 -12 -2 -38 -14 -76 -27 -83 -8 -5 -13 -22 -12 -43 1 -20 -2 -34 -9 -33 -5
1 -10 -7 -10 -18 0 -11 -6 -23 -13 -28 -7 -4 -10 -14 -7 -22 4 -8 1 -15 -6
-15 -6 0 -8 -5 -5 -10 4 -6 1 -17 -5 -25 -7 -8 -9 -15 -4 -15 4 0 -1 -7 -12
-16 -10 -8 -13 -13 -6 -9 6 3 12 2 12 -3 0 -6 -7 -13 -16 -16 -8 -3 -12 -10
-9 -16 3 -5 2 -10 -4 -10 -6 0 -8 -7 -5 -15 4 -8 1 -15 -5 -15 -6 0 -10 -3
-10 -8 3 -20 -2 -32 -13 -26 -7 5 -8 3 -4 -5 5 -7 0 -19 -10 -27 -11 -9 -13
-13 -6 -9 6 3 12 2 12 -3 0 -6 -6 -12 -14 -15 -7 -3 -13 -17 -13 -32 0 -14 -8
-32 -18 -39 -10 -7 -15 -18 -11 -24 4 -7 3 -12 -1 -12 -5 0 -14 -9 -21 -21 -9
-14 -10 -19 -2 -14 9 6 9 2 1 -12 -6 -11 -7 -23 -3 -27 3 -4 -2 -4 -11 0 -11
4 -17 2 -15 -4 2 -6 -6 -18 -17 -27 -11 -9 -14 -14 -7 -10 6 3 12 1 12 -5 0
-6 -7 -13 -16 -17 -8 -3 -13 -12 -10 -19 3 -8 -2 -14 -12 -15 -11 0 -13 -2 -4
-6 10 -4 9 -9 -5 -20 -10 -8 -11 -11 -3 -7 13 7 13 6 0 -12 -8 -10 -20 -22
-27 -27 -6 -4 -10 -16 -8 -27 3 -13 -1 -17 -11 -13 -9 3 -14 -2 -14 -15 0 -12
-10 -31 -23 -44 -35 -36 -59 -77 -51 -90 4 -6 3 -8 -3 -5 -14 9 -37 -19 -28
-33 3 -5 -1 -10 -9 -10 -9 0 -15 -6 -14 -12 2 -7 -2 -12 -9 -11 -7 2 -10 -3
-7 -10 2 -7 -4 -22 -16 -32 -11 -10 -20 -24 -20 -32 0 -8 -4 -11 -10 -8 -5 3
-10 0 -10 -9 0 -8 -18 -33 -39 -55 -22 -23 -43 -50 -46 -61 -4 -11 -11 -17
-17 -14 -7 5 -9 1 -5 -9 4 -11 2 -14 -7 -11 -8 3 -17 0 -22 -7 -5 -8 -3 -10 7
-5 8 4 4 -1 -8 -12 -12 -11 -19 -22 -16 -26 4 -3 1 -6 -6 -6 -7 0 -10 -3 -8
-7 3 -5 -1 -13 -8 -20 -11 -10 -15 -10 -18 0 -3 7 -6 2 -6 -11 -1 -13 -5 -20
-11 -17 -9 6 -14 -7 -11 -27 0 -4 -7 -4 -16 -1 -10 4 -14 2 -9 -5 3 -6 2 -13
-4 -17 -6 -4 -7 -12 -3 -18 4 -7 -2 -5 -12 3 -12 10 -16 11 -11 2 8 -13 -38
-62 -57 -62 -5 0 -5 -4 -2 -10 3 -5 -1 -10 -9 -10 -10 0 -13 -6 -9 -17 4 -10
2 -14 -5 -9 -11 7 -36 -27 -26 -37 3 -3 -3 -4 -13 -3 -12 0 -17 -5 -17 -17 2
-15 -1 -16 -14 -5 -10 8 -13 9 -9 1 4 -7 -1 -14 -13 -18 -11 -4 -18 -10 -15
-14 2 -5 -4 -18 -14 -30 -20 -23 -36 -28 -26 -8 4 6 -3 0 -15 -15 -12 -16 -30
-28 -41 -28 -10 0 -19 -5 -19 -11 0 -5 6 -7 13 -4 6 4 4 0 -5 -8 -10 -8 -15
-17 -11 -21 4 -4 0 -4 -9 -1 -9 4 -19 1 -24 -6 -5 -8 -3 -10 7 -4 11 7 11 5
-1 -9 -9 -12 -16 -14 -18 -6 -3 7 -10 3 -19 -9 -8 -12 -18 -19 -23 -16 -4 3
-14 -3 -21 -13 -13 -16 -12 -16 6 -2 20 14 20 14 1 -7 -10 -13 -23 -20 -27
-17 -5 3 -9 -2 -9 -11 0 -11 -5 -15 -15 -11 -13 5 -19 -5 -16 -26 0 -4 -9 -5
-20 -3 -15 3 -19 0 -15 -11 3 -9 1 -12 -4 -9 -6 3 -10 1 -10 -5 0 -6 -4 -9 -9
-6 -5 3 -11 -1 -15 -9 -3 -8 -12 -15 -21 -15 -8 0 -15 -5 -15 -11 0 -5 -4 -7
-10 -4 -5 3 -10 1 -10 -6 0 -7 -3 -9 -6 -6 -4 3 -19 -7 -34 -23 -16 -17 -33
-30 -39 -30 -6 0 -11 -6 -11 -12 0 -9 -4 -8 -10 2 -8 13 -10 12 -10 -2 0 -10
-7 -18 -15 -18 -8 0 -15 -5 -15 -11 0 -5 -4 -7 -10 -4 -5 3 -10 1 -10 -5 0 -7
-7 -10 -14 -7 -10 4 -13 1 -9 -9 3 -8 -1 -14 -11 -14 -9 0 -16 -6 -16 -12 0
-9 -4 -8 -10 2 -8 13 -10 12 -10 -3 0 -9 -6 -16 -12 -15 -7 2 -12 -3 -10 -10
2 -10 -2 -10 -19 -1 -15 8 -19 8 -15 0 4 -6 2 -11 -3 -11 -6 0 -11 -8 -11 -17
0 -14 -2 -15 -9 -5 -7 11 -11 11 -23 -2 -9 -8 -18 -12 -22 -9 -3 4 -6 1 -6 -5
0 -7 -7 -12 -15 -12 -8 0 -15 -5 -15 -11 0 -5 -4 -7 -10 -4 -5 3 -10 2 -10 -4
0 -6 -11 -13 -25 -17 -14 -3 -25 -11 -25 -18 0 -6 -5 -4 -10 4 -8 13 -10 12
-10 -4 0 -12 -5 -16 -15 -12 -9 3 -15 0 -15 -9 0 -9 -6 -12 -17 -8 -11 4 -14
3 -9 -5 5 -8 2 -10 -8 -6 -9 3 -16 1 -16 -5 0 -6 -3 -10 -7 -9 -5 1 -19 -4
-33 -12 -38 -22 -54 -22 -38 -2 7 9 17 20 21 23 5 3 8 8 7 10 -1 2 6 24 16 49
10 25 18 48 16 53 -1 4 2 7 8 7 5 0 10 5 10 10 0 6 16 46 36 88 20 42 43 95
52 117 8 22 21 49 29 60 7 11 13 27 13 37 0 10 5 18 12 18 6 0 9 3 5 6 -3 4 1
21 10 38 10 17 16 34 15 39 -1 4 3 7 9 7 6 0 9 6 6 14 -3 8 -3 16 1 18 6 3 43
73 48 91 1 4 3 9 4 12 1 3 3 10 4 15 0 6 6 14 11 18 6 4 11 13 13 20 1 6 3 18
5 25 1 6 6 15 10 18 5 3 10 12 11 20 2 8 12 34 24 59 11 25 21 50 22 55 1 6 6
16 12 22 6 7 7 13 2 13 -5 0 -1 5 9 11 9 6 14 15 11 21 -4 6 -3 13 2 17 12 8
44 78 44 96 0 8 5 15 10 15 6 0 9 3 8 8 -1 4 3 17 10 28 6 12 8 24 5 28 -3 3
-1 6 6 6 7 0 9 5 6 10 -3 6 -1 10 6 10 7 0 10 3 7 6 -4 3 6 31 22 62 27 55 62
132 64 142 1 3 7 14 13 25 6 11 11 23 12 28 0 4 14 35 30 70 16 34 31 69 33
77 2 8 9 21 16 28 7 8 10 18 7 23 -4 5 -1 9 4 9 6 0 11 9 11 20 0 11 5 20 11
20 5 0 8 4 4 9 -3 5 -1 12 5 16 6 4 8 11 5 16 -4 5 -1 9 4 9 6 0 10 3 9 8 -1
4 3 17 10 30 7 12 10 22 6 22 -4 0 1 9 11 20 10 11 15 20 11 20 -3 0 1 11 10
25 9 14 12 25 8 25 -5 0 -3 4 4 9 7 4 15 14 16 22 2 8 13 36 26 63 24 53 33
99 17 89 -6 -4 -8 2 -4 16 3 15 -1 24 -14 32 -11 5 -17 14 -15 18 3 4 0 8 -7
8 -7 0 -41 14 -77 31 -84 39 -164 75 -170 76 -3 1 -15 7 -26 14 -12 6 -24 8
-28 5 -3 -3 -6 -1 -6 6 0 7 -4 9 -10 6 -6 -3 -10 -1 -10 4 0 6 -8 11 -18 11
-10 0 -27 7 -38 15 -10 8 -27 15 -36 15 -10 0 -18 5 -18 10 0 6 -11 10 -25 10
-14 0 -25 4 -25 9 0 8 -9 12 -45 20 -5 1 -25 11 -42 23 -18 11 -33 17 -33 14
0 -4 -10 0 -23 9 -13 8 -27 12 -30 8 -4 -3 -7 -1 -7 5 0 7 -9 12 -20 12 -11 0
-20 5 -20 12 0 6 -3 8 -6 5 -4 -3 -15 -2 -26 4 -30 16 -66 20 -73 9 -3 -5 -11
-10 -16 -10 -6 0 -7 5 -3 12 4 7 3 8 -4 4 -7 -4 -12 -14 -12 -21 0 -9 -6 -12
-17 -8 -11 4 -14 3 -9 -5 4 -7 2 -12 -3 -12 -6 0 -11 -4 -11 -9 0 -5 -17 -45
-37 -88 -20 -43 -38 -87 -40 -98 -2 -11 -8 -22 -13 -23 -6 -2 -10 -12 -10 -22
0 -10 -5 -22 -10 -25 -6 -4 -8 -11 -5 -16 4 -5 2 -9 -4 -9 -5 0 -13 -10 -16
-22 -4 -13 -15 -42 -26 -66 -11 -24 -16 -48 -13 -54 4 -6 3 -8 -3 -5 -9 6 -37
-42 -34 -57 0 -3 -8 -22 -19 -41 -11 -20 -20 -42 -20 -50 0 -8 -4 -15 -10 -15
-5 0 -10 -7 -10 -15 0 -8 -9 -30 -20 -50 -11 -19 -17 -35 -15 -35 3 0 -2 -11
-11 -25 -8 -13 -13 -29 -9 -35 3 -5 2 -10 -3 -10 -10 0 -62 -109 -62 -129 0
-6 -5 -11 -11 -11 -6 0 -9 -7 -5 -15 3 -8 1 -15 -4 -15 -6 0 -10 -4 -10 -9 0
-5 -16 -45 -36 -88 -20 -43 -42 -91 -49 -108 -8 -16 -25 -56 -39 -88 -15 -32
-23 -64 -20 -70 4 -7 4 -9 -1 -5 -8 8 -57 -86 -58 -109 0 -7 -4 -13 -9 -13 -4
0 -8 -5 -8 -10 0 -6 -9 -32 -21 -58 -46 -104 -62 -139 -81 -174 -11 -21 -17
-38 -14 -38 2 0 -7 -21 -21 -48 -14 -26 -27 -56 -29 -66 -2 -11 -9 -23 -15
-26 -6 -4 -11 -10 -11 -13 0 -4 -2 -16 -5 -26 -3 -11 -4 -23 -3 -27 1 -4 -3
-10 -8 -13 -17 -10 -71 -150 -61 -156 5 -4 9 -17 9 -30 0 -12 7 -26 16 -29 8
-3 12 -10 9 -16 -3 -5 1 -10 10 -10 9 0 13 -4 10 -10 -5 -8 7 -12 31 -9 3 0
12 -8 20 -18 7 -10 14 -15 14 -10 0 4 21 -4 47 -17 25 -14 50 -23 55 -20 4 3
8 0 8 -5 0 -6 5 -11 10 -11 6 0 30 -9 52 -20 23 -11 48 -20 55 -20 7 0 13 -4
13 -9 0 -5 20 -15 45 -22 25 -7 45 -17 45 -21 0 -4 9 -8 20 -8 11 0 20 -5 20
-12 0 -6 3 -9 6 -5 3 3 27 -5 52 -18 26 -13 49 -22 53 -19 4 2 12 -3 19 -11 7
-8 21 -15 31 -15 11 0 19 -5 19 -11 0 -5 4 -8 9 -5 4 3 17 -1 27 -9 10 -8 27
-15 37 -15 9 0 17 -4 17 -10 0 -5 18 -10 40 -10 25 0 40 5 40 13 0 8 4 7 10
-3 8 -12 10 -12 10 -1 0 8 3 12 6 8 3 -3 1 -14 -5 -24 -8 -14 -10 -14 -11 -3
0 13 -1 13 -10 0 -5 -8 -10 -11 -10 -7 0 5 -7 1 -16 -7 -8 -9 -20 -14 -25 -10
-5 3 -12 -2 -15 -10 -3 -9 -10 -13 -15 -10 -5 3 -7 11 -3 17 3 7 -4 1 -15 -12
-12 -13 -21 -20 -21 -16 0 5 -9 0 -19 -9 -13 -12 -21 -14 -26 -6 -4 6 -14 2
-26 -12 -12 -13 -18 -17 -14 -10 3 6 1 12 -4 12 -6 0 -11 -5 -11 -11 0 -5 -4
-8 -9 -5 -5 3 -11 0 -14 -8 -3 -8 -16 -12 -31 -11 -14 2 -30 -3 -36 -10 -6 -8
-19 -11 -27 -8 -11 4 -14 2 -9 -5 5 -8 2 -10 -8 -6 -9 3 -16 2 -16 -3 0 -5 -7
-10 -15 -11 -8 -1 -22 -3 -30 -4 -8 -1 -15 -6 -15 -11 0 -5 -8 -3 -17 4 -9 8
-14 9 -10 3 8 -13 -19 -27 -34 -18 -5 3 -9 1 -9 -5 0 -5 -9 -8 -20 -6 -11 2
-22 -1 -25 -6 -4 -5 -11 -7 -16 -4 -5 4 -9 1 -9 -5 0 -7 -7 -10 -15 -6 -8 3
-15 2 -15 -2 0 -7 -24 -12 -67 -15 -7 0 -13 -4 -13 -9 0 -4 -10 -8 -23 -8 -13
0 -29 -6 -36 -13 -12 -10 -13 -9 -7 7 6 18 5 19 -11 4 -18 -15 -62 -29 -95
-29 -10 0 -18 -3 -18 -7 0 -4 -19 -8 -42 -10 -23 -1 -46 -8 -50 -15 -6 -9 -8
-9 -8 1 0 8 -5 10 -12 5 -7 -4 -24 -8 -38 -9 -14 0 -31 -4 -38 -8 -7 -4 -16
-4 -22 -1 -5 3 -10 1 -10 -5 0 -7 -7 -9 -16 -6 -9 3 -34 1 -56 -5 -22 -5 -59
-10 -81 -11 -23 0 -48 -5 -54 -10 -9 -7 -13 -7 -13 2 0 10 -3 10 -15 0 -8 -7
-26 -10 -40 -8 -14 3 -25 1 -25 -6 0 -7 -3 -7 -8 -1 -9 13 -45 13 -54 0 -4 -5
-73 -10 -155 -12 -167 -4 -173 -4 -173 -12 0 -4 -41 -6 -92 -5 -84 1 -94 -1
-113 -22 -13 -14 -26 -20 -33 -15 -16 10 -58 7 -54 -4 2 -4 -2 -12 -10 -17 -8
-5 23 -7 77 -6 50 1 96 -1 102 -5 6 -4 13 -2 15 4 3 8 9 6 20 -5 13 -12 35
-16 98 -15 54 1 86 -4 97 -13 14 -11 16 -11 8 2 -7 12 -6 13 6 4 17 -13 677
-14 697 -1 7 5 12 3 12 -4 0 -8 4 -8 13 -1 6 6 15 11 20 11 4 1 8 1 10 2 8 1
133 9 192 11 39 2 73 6 76 11 3 4 24 9 47 10 22 1 44 6 48 10 12 12 26 8 18
-5 -5 -8 0 -7 10 2 11 8 29 13 42 12 13 -2 24 0 24 5 0 5 8 9 18 9 9 1 35 4
57 8 22 5 51 9 65 9 14 1 28 5 31 10 3 4 25 9 50 11 24 2 48 4 52 5 5 1 6 5 3
10 -4 5 3 7 14 4 11 -3 27 0 35 7 12 10 15 10 15 0 0 -10 5 -9 18 2 9 9 23 13
30 11 6 -3 12 1 12 7 0 7 8 9 20 5 12 -4 20 -2 20 5 0 6 5 8 10 5 6 -4 17 -1
25 5 8 7 22 10 30 6 9 -3 13 -2 10 4 -4 6 5 10 20 10 14 0 24 4 21 9 -4 5 2 8
11 6 10 -1 24 2 31 8 8 6 12 5 12 -4 0 -11 2 -11 8 -1 5 7 20 15 33 17 14 3
42 13 64 24 29 14 42 16 47 8 5 -8 8 -7 8 3 0 10 10 17 27 18 15 1 30 7 34 13
4 7 12 8 19 4 8 -5 11 -4 7 2 -4 7 8 13 28 17 19 4 35 11 35 16 0 5 7 6 17 3
10 -4 14 -2 10 4 -4 6 1 10 11 10 34 0 43 3 37 12 -3 5 0 13 6 17 7 4 9 3 5
-4 -4 -6 1 -10 13 -9 11 0 17 5 15 9 -5 7 10 12 29 9 4 0 7 6 7 15 0 9 5 12
12 8 6 -4 16 -1 22 7 6 8 16 14 21 15 24 3 55 17 55 26 0 5 4 7 9 3 6 -3 14 3
20 12 8 14 11 15 11 3 0 -12 4 -11 15 4 8 11 18 17 21 13 4 -3 13 1 21 9 8 8
19 12 24 9 5 -4 9 1 9 9 0 10 6 13 15 10 8 -4 17 1 21 9 3 9 12 13 19 11 7 -3
20 5 29 18 9 12 16 19 16 14 0 -5 9 -1 19 8 11 10 24 15 29 12 5 -3 19 8 31
25 13 17 25 28 29 25 3 -3 14 2 25 11 15 13 18 14 12 3 -8 -13 -6 -13 8 -1 9
7 14 17 11 22 -3 5 2 6 10 3 9 -3 16 -1 16 5 0 6 10 11 23 11 18 0 19 2 7 10
-12 8 -11 10 6 10 11 0 29 9 39 20 10 11 24 20 32 20 7 0 13 5 13 10 0 6 6 10
14 10 7 0 27 14 45 30 17 17 37 28 43 24 6 -4 8 -3 5 2 -3 6 8 16 24 23 17 7
35 24 41 37 7 14 16 23 22 21 13 -4 46 24 46 40 0 7 11 15 25 19 14 3 25 12
25 20 0 8 6 11 15 8 10 -4 15 0 15 11 0 9 4 14 9 11 5 -3 15 2 22 11 12 14 12
16 0 8 -10 -6 -12 -4 -7 4 5 7 14 10 22 7 8 -3 11 0 7 10 -4 10 0 12 11 8 12
-5 15 -2 10 10 -4 11 -2 16 7 14 8 -2 13 4 13 14 -1 11 4 14 14 11 11 -5 13
-3 7 7 -6 10 -4 12 8 7 12 -4 14 -2 10 10 -4 10 -2 14 5 9 6 -3 13 3 17 14 3
11 11 20 16 20 6 0 7 -5 3 -12 -4 -7 -3 -8 5 -4 6 4 9 11 6 16 -3 5 4 15 16
24 14 9 18 19 13 28 -6 11 -5 11 8 0 13 -10 18 -10 24 -1 4 8 3 9 -4 5 -7 -4
-12 -2 -12 3 0 10 14 15 33 12 5 -1 6 3 2 9 -3 5 1 13 9 16 9 3 13 11 9 17 -4
6 0 8 10 4 12 -4 14 -2 10 10 -4 11 -2 14 5 9 7 -4 12 -1 12 9 0 9 4 14 9 11
5 -3 15 2 22 11 12 14 12 16 -1 9 -8 -4 -6 -1 4 8 10 8 23 13 29 9 6 -3 7 -1
3 6 -4 6 0 14 8 17 9 3 13 11 9 17 -4 6 0 8 11 4 10 -4 15 -3 11 3 -3 6 1 13
9 16 9 3 13 10 10 15 -3 5 0 9 7 9 7 0 10 3 7 6 -3 3 9 21 28 40 19 19 30 34
24 34 -6 0 -8 5 -5 10 4 6 11 8 16 5 5 -4 9 1 9 9 0 8 5 18 12 22 7 5 8 3 3
-6 -5 -9 -4 -11 3 -6 7 4 12 13 12 21 0 8 8 19 18 24 9 6 13 11 7 11 -5 0 1 8
15 16 18 11 20 14 5 10 l-20 -6 20 16 c11 8 19 19 18 24 -2 5 5 6 14 3 10 -4
14 -2 9 5 -3 6 -2 13 4 17 6 4 7 11 4 17 -4 7 -2 8 4 4 7 -4 12 -2 12 4 0 6 5
8 13 4 7 -5 6 0 -3 11 -10 13 -11 16 -2 11 9 -5 15 -1 19 13 3 11 9 18 14 15
5 -3 9 0 9 5 0 6 -6 11 -12 12 -7 0 -5 4 5 8 10 4 19 11 20 16 0 6 10 18 21
28 12 10 14 16 6 12 -8 -4 -5 2 8 13 12 11 22 25 22 32 0 6 4 9 9 5 6 -3 8 4
6 15 -2 11 0 18 6 15 8 -6 10 -1 13 33 1 7 8 17 16 22 8 5 16 14 16 20 1 5 2
15 3 21 0 5 6 7 11 4 9 -5 15 16 11 38 -1 5 3 6 9 2 9 -6 14 7 11 28 0 4 3 7
9 7 5 0 10 9 10 21 0 13 4 18 12 13 7 -5 9 -2 6 8 -4 8 2 21 12 28 10 7 16 20
12 28 -3 8 -1 13 4 9 5 -3 14 6 21 19 7 16 8 22 1 17 -7 -3 -8 -1 -4 5 4 7 15
12 24 12 14 0 15 2 2 10 -12 8 -12 10 3 16 9 3 17 10 17 16 0 5 -6 6 -12 3 -7
-4 -5 0 4 8 10 8 15 17 11 20 -3 4 -2 7 4 7 9 0 11 6 15 50 1 11 8 20 15 20 7
0 12 3 11 7 -1 5 3 18 10 29 6 12 8 24 5 28 -3 3 -1 6 6 6 8 0 11 7 7 15 -3 8
0 15 5 15 6 0 9 9 6 20 -3 11 -2 18 1 16 12 -7 27 18 30 49 2 17 7 31 12 33 5
2 6 10 3 18 -3 8 2 17 12 20 13 5 14 9 3 15 -10 7 -11 9 0 9 7 0 11 4 8 9 -3
5 4 20 15 35 14 18 16 26 7 26 -10 0 -9 3 2 10 8 5 11 10 6 10 -5 0 -2 8 7 18
10 10 14 21 11 25 -3 3 -2 12 2 19 4 7 9 19 10 28 4 26 12 56 28 105 9 26 17
58 18 71 1 13 6 24 10 24 4 0 5 9 3 20 -2 11 -1 20 3 20 4 0 9 14 10 32 2 17
8 38 14 45 8 10 7 13 -3 13 -10 0 -11 2 -2 8 7 4 14 23 17 42 8 59 14 80 30
96 21 21 20 30 -1 13 -17 -13 -17 -13 0 7 16 19 17 69 17 743 0 404 -4 720 -9
717 -4 -3 -7 8 -5 25 3 21 0 28 -8 23 -8 -5 -9 -2 -5 9 3 9 2 19 -2 21 -5 3
-7 17 -6 31 2 14 0 25 -4 25 -6 0 -11 34 -14 88 0 6 -4 12 -9 12 -4 0 -8 17
-8 38 0 21 -6 44 -12 51 -11 11 -10 12 2 6 13 -8 13 -7 1 8 -7 9 -10 17 -6 17
4 0 3 6 -4 13 -8 10 -7 17 2 26 9 10 9 12 -2 9 -8 -2 -15 7 -17 22 -4 30 -12
65 -14 65 -2 0 -11 38 -12 53 -1 6 -4 12 -7 12 -4 0 -8 11 -9 26 -1 14 -7 34
-12 45 -8 14 -7 19 1 19 7 0 2 9 -10 19 -13 12 -18 22 -11 26 5 3 10 11 10 16
0 6 -4 7 -10 4 -5 -3 -10 0 -11 7 -1 29 -8 51 -17 57 -5 3 -8 16 -7 29 1 12
-2 22 -7 22 -4 0 -8 9 -8 20 0 11 -4 20 -9 20 -5 0 -12 7 -15 16 -3 8 -2 12 4
9 6 -3 7 1 4 9 -3 9 -10 16 -16 16 -5 0 -6 9 -3 20 4 13 2 20 -7 20 -8 0 -15
12 -16 27 -1 15 -6 29 -11 32 -5 3 -11 15 -13 26 -1 11 -10 25 -18 32 -13 11
-13 12 0 13 13 0 13 2 1 9 -8 5 -16 20 -18 33 -2 13 -8 25 -13 26 -6 2 -10 12
-10 23 0 10 -5 19 -12 19 -6 0 -8 3 -5 7 4 3 -1 15 -10 26 -10 11 -12 17 -5
13 11 -7 11 -4 0 13 -7 12 -17 21 -23 21 -5 0 -4 4 3 9 11 6 8 14 -15 35 -22
21 -24 26 -8 21 l20 -6 -20 13 c-11 7 -21 20 -23 28 -2 8 -8 17 -13 18 -5 2
-9 12 -9 23 0 10 -5 19 -12 19 -6 0 -8 3 -5 7 4 3 -1 15 -10 26 -13 15 -14 19
-3 13 8 -4 6 0 -4 8 -11 9 -16 16 -12 16 4 0 0 7 -8 16 -9 8 -14 20 -11 25 4
5 2 9 -3 9 -5 0 -15 14 -22 30 -7 17 -17 30 -22 30 -5 0 -6 10 -3 21 5 15 4
19 -4 15 -6 -4 -14 1 -18 11 -4 10 -11 21 -17 25 -7 5 -6 8 4 8 9 1 6 5 -7 10
-14 6 -32 30 -45 60 -12 27 -25 50 -30 50 -4 0 -8 7 -8 16 0 8 -4 13 -9 10 -5
-3 -14 8 -21 24 -7 18 -17 27 -24 23 -6 -4 -5 1 3 10 11 15 11 17 -2 17 -8 0
-21 8 -28 18 -13 16 -13 16 6 2 19 -14 19 -14 6 3 -7 9 -21 17 -30 17 -14 0
-14 2 -1 10 13 8 12 10 -2 10 -10 0 -17 6 -15 13 1 6 -4 11 -12 9 -8 -2 -11 3
-8 12 3 8 -1 20 -9 26 -8 7 -14 19 -14 26 0 8 -9 14 -20 14 -13 0 -20 7 -20
20 0 11 -4 20 -10 20 -5 0 -10 7 -10 15 0 9 -7 18 -16 22 -8 3 -13 12 -10 20
3 8 1 11 -4 8 -6 -3 -10 -1 -10 4 0 6 -7 11 -16 11 -11 0 -15 6 -11 20 3 12 1
18 -5 14 -11 -7 -50 31 -41 40 4 3 -1 6 -10 6 -11 0 -15 7 -12 21 3 15 -2 23
-15 26 -11 3 -17 10 -13 16 4 6 0 8 -10 4 -10 -4 -16 -2 -14 6 1 7 -3 11 -10
10 -6 -2 -15 6 -18 17 -4 11 -11 20 -16 20 -6 0 -7 5 -3 12 5 8 2 9 -10 5 -10
-4 -15 -3 -11 3 3 6 -1 13 -9 16 -9 3 -13 10 -10 15 3 5 -2 6 -10 3 -12 -4
-16 0 -16 16 0 11 -4 18 -10 15 -5 -3 -10 -2 -10 3 0 6 -15 19 -32 31 -18 11
-27 21 -19 21 11 0 9 4 -4 14 -11 8 -24 12 -29 8 -5 -3 -7 2 -3 12 4 9 3 15
-2 12 -5 -3 -21 10 -36 29 -16 19 -32 32 -36 29 -5 -3 -6 3 -2 12 5 14 3 16
-11 11 -10 -4 -15 -3 -11 3 3 6 -1 10 -9 10 -9 0 -16 7 -16 15 0 9 -7 18 -15
21 -8 4 -12 11 -8 17 4 6 0 8 -11 4 -10 -4 -15 -3 -11 3 3 6 -1 13 -9 16 -9 3
-13 11 -9 17 3 6 1 7 -5 3 -6 -3 -22 4 -35 16 -14 13 -33 30 -44 38 -10 8 -12
11 -4 5 14 -9 14 -8 2 8 -7 9 -21 17 -30 17 -24 1 -51 25 -51 46 0 16 -2 17
-10 4 -7 -11 -10 -11 -10 -2 0 7 -4 10 -10 7 -5 -3 -10 2 -10 12 0 15 -2 16
-10 3 -8 -13 -10 -12 -10 3 0 11 -9 21 -21 24 -16 4 -17 8 -7 14 9 6 7 9 -9 9
-13 0 -23 5 -23 10 0 6 -7 10 -16 10 -8 0 -13 4 -10 9 3 5 -1 12 -10 15 -10 4
-13 2 -9 -7 4 -6 0 -4 -8 5 -8 10 -17 15 -20 11 -4 -3 -7 1 -7 11 0 9 -4 14
-10 11 -5 -3 -10 1 -10 9 0 9 -9 16 -20 16 -11 0 -20 5 -20 10 0 6 -6 9 -12 8
-7 -2 -12 3 -10 10 1 8 -2 11 -8 7 -5 -3 -10 -1 -10 5 0 6 -4 8 -10 5 -5 -3
-10 -1 -10 4 0 6 -6 11 -13 11 -7 0 -22 7 -33 16 -10 8 -13 12 -5 8 9 -4 12
-3 7 4 -4 6 -13 9 -20 6 -7 -3 -16 2 -19 10 -4 9 -13 16 -22 16 -8 0 -15 5
-15 10 0 6 -9 10 -20 10 -11 0 -20 5 -20 11 0 5 -4 7 -10 4 -5 -3 -10 1 -10 9
0 14 -18 21 -42 17 -5 0 -8 3 -8 8 0 5 -16 15 -35 22 -19 7 -35 19 -35 26 0 7
-3 12 -7 11 -15 -4 -53 13 -53 23 0 6 -4 8 -9 4 -5 -3 -17 2 -25 11 -9 8 -16
12 -16 8 0 -4 -10 1 -22 12 -12 10 -18 13 -14 6 7 -11 4 -11 -13 0 -12 7 -21
16 -21 21 0 4 -4 5 -10 2 -5 -3 -10 -1 -10 6 0 7 -3 10 -6 6 -8 -7 -66 21 -76
37 -5 8 -8 7 -8 -2 0 -8 -8 -5 -22 8 -12 11 -29 18 -37 15 -11 -4 -11 -3 -2 9
10 12 8 13 -9 9 -13 -4 -26 0 -31 8 -7 12 -9 12 -9 -1 -1 -11 -4 -10 -15 4 -8
11 -15 16 -15 10 0 -5 -4 -3 -9 4 -4 7 -18 14 -29 15 -12 1 -22 5 -22 9 0 4
-10 8 -22 8 -12 0 -30 8 -41 18 -11 9 -17 11 -13 5 5 -9 -1 -8 -21 2 -30 15
-60 26 -82 31 -8 1 -17 6 -20 11 -6 7 -13 10 -51 18 -8 2 -17 4 -20 5 -3 1 -8
2 -12 1 -5 0 -8 3 -8 8 0 6 -9 8 -20 6 -11 -2 -20 0 -20 5 0 7 -46 22 -67 21
-5 0 -19 7 -32 16 -15 9 -21 10 -16 2 6 -8 4 -10 -6 -3 -8 4 -20 9 -27 10 -8
2 -21 6 -30 10 -16 7 -39 12 -69 16 -7 1 -13 6 -13 12 0 6 -4 5 -9 -2 -6 -11
-10 -10 -15 3 -5 14 -9 15 -21 5 -12 -10 -15 -10 -15 0 0 7 -7 10 -15 7 -8 -4
-17 -2 -20 4 -4 5 -10 7 -15 4 -5 -3 -11 -1 -15 5 -4 6 -11 8 -16 5 -5 -4 -15
-3 -21 2 -7 4 -22 9 -33 10 -11 1 -33 5 -50 8 -16 3 -37 7 -45 7 -8 1 -18 6
-22 12 -5 7 -8 6 -8 -3 0 -10 -4 -11 -13 -3 -6 6 -26 9 -44 8 -17 -1 -30 2
-27 6 5 7 -20 11 -86 12 -14 0 -28 4 -31 9 -3 5 -32 9 -63 9 -31 1 -56 5 -56
9 0 5 -29 7 -65 6 -36 -1 -65 2 -65 8 0 5 -5 4 -11 -2 -11 -11 -19 -11 -56 4
-26 9 -645 11 -665 1 -10 -5 -18 -3 -21 5 -3 9 -5 8 -8 -2z m3032 -1658 c13
-16 12 -17 -3 -4 -10 7 -18 15 -18 17 0 8 8 3 21 -13z m-791 -4125 c25 -11 59
-26 75 -33 17 -8 66 -30 110 -50 84 -39 121 -55 195 -87 25 -11 57 -26 71 -34
14 -7 29 -11 33 -7 3 3 6 1 6 -5 0 -7 6 -12 12 -12 7 0 43 -14 81 -32 l68 -32
-2 -42 c-2 -24 -6 -41 -10 -38 -7 4 -19 -21 -19 -39 0 -4 -11 -27 -25 -52 -13
-25 -25 -49 -26 -53 -2 -13 -16 -45 -58 -134 -22 -49 -38 -88 -35 -88 3 0 -1
-6 -8 -14 -7 -8 -16 -12 -19 -10 -3 2 -12 -12 -19 -31 -8 -19 -17 -35 -21 -35
-5 0 -16 -16 -25 -35 -9 -19 -21 -35 -26 -35 -6 0 -5 -7 2 -15 11 -13 10 -14
-2 -10 -11 4 -20 -3 -29 -24 -7 -16 -18 -27 -23 -24 -5 4 -7 -1 -3 -10 4 -11
1 -17 -8 -17 -8 0 -15 -4 -15 -9 0 -4 -25 -34 -55 -66 -30 -31 -55 -60 -55
-63 0 -4 -9 -13 -20 -20 -12 -7 -18 -17 -15 -22 4 -6 -1 -7 -11 -3 -11 4 -15
2 -11 -4 4 -5 -5 -15 -18 -21 -14 -7 -25 -18 -25 -27 0 -8 -5 -15 -11 -15 -5
0 -7 6 -4 13 4 6 -3 1 -14 -12 -12 -13 -21 -19 -21 -15 0 5 -7 -2 -16 -14 -8
-12 -20 -22 -26 -22 -7 0 -3 7 8 16 18 14 18 15 -3 4 -13 -6 -23 -16 -23 -21
0 -7 -12 -9 -29 -7 -17 2 -28 2 -27 -1 2 -3 -2 -12 -10 -19 -11 -10 -14 -10
-14 0 0 10 -3 9 -9 -1 -10 -15 -61 -22 -61 -8 0 4 -8 3 -18 -2 -13 -7 -27 -6
-45 4 -14 7 -29 10 -32 7 -4 -4 -5 0 -3 8 2 8 -2 14 -8 13 -7 -1 -17 11 -24
27 -7 16 -16 28 -20 25 -4 -3 -11 3 -15 13 -13 29 -14 42 -2 36 7 -3 4 1 -5 9
-20 16 -25 32 -7 21 8 -4 7 0 -1 15 -6 12 -15 19 -19 17 -10 -7 -7 46 4 64 5
9 4 11 -3 6 -7 -4 -12 -1 -12 8 0 9 -6 16 -12 16 -8 0 -5 7 6 15 11 8 15 15 8
15 -7 0 -10 14 -8 35 1 20 -2 35 -8 35 -7 0 -8 3 -1 8 6 4 10 30 10 57 0 28 4
56 9 63 5 8 4 12 -4 12 -8 0 -9 4 -3 13 5 6 10 26 11 42 1 17 5 41 8 55 12 56
16 75 18 85 1 6 6 16 10 24 7 10 5 12 -3 6 -8 -5 -7 3 3 23 9 18 12 33 6 37
-5 3 0 21 11 40 12 19 18 35 14 35 -4 0 -3 6 2 13 5 6 10 21 10 33 1 11 15 50
32 87 17 37 31 72 31 77 0 6 5 10 10 10 6 0 10 7 10 16 0 9 6 28 14 42 7 15
26 54 40 87 41 92 52 110 66 107 11 -3 11 0 0 12 -13 17 1 12 110 -36z m-382
-1609 c28 -12 52 -26 52 -31 0 -4 7 -8 15 -8 9 0 12 -6 9 -15 -5 -11 -2 -13 9
-9 12 4 15 1 12 -15 -2 -12 0 -19 6 -16 5 4 9 -1 9 -9 0 -9 6 -16 13 -16 8 0
7 -4 -3 -10 -12 -7 -12 -10 -1 -10 8 0 11 -6 7 -15 -3 -9 1 -18 11 -22 14 -6
14 -8 -3 -20 -10 -7 -13 -13 -7 -13 19 0 7 -96 -16 -128 -16 -23 -18 -32 -8
-42 9 -10 9 -11 0 -6 -8 4 -13 1 -13 -8 0 -9 -4 -16 -10 -16 -5 0 -10 -6 -10
-13 0 -7 -12 -38 -26 -68 -15 -30 -27 -60 -27 -66 0 -7 -4 -13 -9 -13 -5 0 -6
-4 -3 -10 3 -5 3 -10 -2 -10 -4 0 -21 -33 -37 -74 -31 -76 -40 -83 -82 -59
-12 7 -24 9 -28 6 -3 -3 -6 -1 -6 5 0 7 -9 12 -20 12 -11 0 -20 5 -20 11 0 5
-4 8 -9 4 -5 -3 -16 2 -24 10 -9 8 -20 15 -26 15 -5 0 -22 5 -38 12 -15 6 -31
11 -35 10 -5 -1 -8 2 -8 8 0 5 -5 10 -10 10 -6 0 -29 9 -52 20 -22 11 -43 18
-47 16 -3 -2 -19 7 -36 20 l-30 23 20 33 c10 18 19 34 18 35 -4 8 11 43 18 43
5 0 8 3 7 8 -1 7 4 21 46 115 15 32 23 63 20 69 -4 7 -2 8 4 4 7 -4 14 4 18
21 4 15 14 36 22 46 8 9 12 17 8 17 -3 0 1 11 10 25 9 14 13 25 9 25 -5 0 -1
8 8 18 10 10 14 22 10 27 -5 4 0 5 9 2 13 -4 15 -2 11 11 -3 9 -3 14 2 10 4
-4 14 0 22 10 8 9 11 11 7 3 -5 -9 -3 -12 4 -7 7 4 12 14 12 22 0 8 5 14 11
14 5 0 7 -6 4 -12 -4 -7 0 -5 8 5 16 19 32 24 21 5 -4 -6 3 -4 15 4 12 9 30
14 41 11 10 -3 21 0 24 6 5 7 13 7 24 1 9 -5 41 -19 70 -31z m1531 -472 c-2
-1 -13 -9 -24 -17 -19 -14 -19 -14 -6 3 7 9 18 17 24 17 6 0 8 -1 6 -3z"/>
<path d="M6843 3430 c-12 -5 -27 -18 -33 -29 -15 -30 -6 -89 18 -111 20 -19
92 -53 92 -44 0 3 7 -2 16 -11 9 -9 23 -14 30 -11 8 3 14 2 14 -3 0 -9 94 -54
115 -54 8 0 15 -4 15 -7 0 -9 56 -33 76 -33 8 0 14 -4 14 -8 0 -9 28 -20 65
-25 82 -11 131 66 85 132 -16 23 -435 214 -466 213 -10 0 -29 -4 -41 -9z"/>
<path d="M6651 3236 c-17 -20 12 -50 45 -45 4 0 10 -4 14 -11 4 -6 16 -12 28
-13 12 0 19 -3 17 -5 -6 -6 22 -32 34 -32 6 0 11 -5 11 -11 0 -5 4 -8 9 -4 5
3 12 1 16 -5 4 -6 11 -8 16 -5 5 4 9 1 9 -5 0 -6 5 -8 10 -5 6 3 10 1 10 -4 0
-6 3 -10 8 -9 4 1 30 -9 57 -22 28 -13 52 -24 55 -25 14 -5 51 -20 99 -42 29
-13 58 -25 65 -26 6 -1 14 -6 17 -10 4 -5 18 -10 33 -10 14 -1 26 -5 26 -9 0
-4 6 -5 14 -2 8 3 17 0 21 -5 3 -6 11 -9 16 -6 5 4 9 2 9 -3 0 -5 11 -12 25
-15 27 -5 55 25 35 38 -5 3 -10 3 -10 -1 0 -3 -12 2 -27 12 -15 9 -42 18 -60
20 -18 1 -39 7 -47 13 -7 6 -16 8 -19 4 -4 -3 -7 -2 -7 3 0 6 -17 16 -37 24
-21 7 -67 27 -103 44 -36 16 -67 31 -70 31 -3 0 -15 6 -26 13 -12 6 -24 8 -28
5 -3 -3 -6 -1 -6 5 0 7 -9 12 -20 12 -11 0 -20 5 -20 11 0 5 -4 7 -10 4 -5 -3
-10 -1 -10 6 0 7 -3 9 -6 6 -4 -3 -16 -1 -28 5 -11 7 -24 12 -28 13 -4 0 -14
9 -23 20 -9 11 -14 13 -10 5 6 -13 5 -13 -7 0 -7 8 -26 22 -43 30 -16 8 -33
16 -36 18 -3 1 -11 -4 -18 -12z"/>
<path d="M6619 3138 c-7 -31 -6 -36 9 -31 10 4 13 2 8 -5 -6 -11 5 -17 27 -13
4 0 7 -3 7 -8 0 -4 20 -14 45 -21 25 -7 45 -17 45 -21 0 -5 5 -9 10 -9 6 0 30
-9 52 -20 23 -11 48 -20 55 -20 7 0 13 -5 13 -11 0 -5 4 -8 9 -4 5 3 13 0 16
-6 4 -5 14 -8 22 -5 8 3 12 2 9 -3 -3 -5 3 -11 14 -14 11 -3 24 -6 28 -7 4 -1
16 -7 27 -13 11 -6 27 -12 35 -13 8 -2 16 -8 18 -14 2 -5 8 -8 13 -4 5 3 9 1
9 -4 0 -5 6 -9 13 -9 6 0 37 -12 67 -26 30 -14 64 -27 75 -29 11 -2 23 -7 27
-13 4 -6 8 -2 8 8 0 11 5 15 11 11 7 -4 10 -1 7 7 -3 8 -9 15 -14 15 -27 4
-54 18 -54 27 0 6 -3 8 -6 4 -4 -3 -19 0 -35 8 -34 18 -43 19 -33 4 3 -6 -5
-3 -19 6 -14 9 -28 16 -32 16 -3 -1 -18 5 -34 13 -16 9 -31 12 -35 9 -3 -4 -6
-1 -6 6 0 7 -4 9 -10 6 -5 -3 -10 -1 -10 4 0 6 -3 10 -7 9 -5 -1 -24 5 -43 14
-19 8 -38 14 -41 14 -3 -1 -13 5 -21 12 -9 7 -26 15 -39 17 -12 3 -26 10 -29
16 -4 6 -10 11 -13 11 -27 0 -45 12 -40 26 4 10 2 13 -6 8 -7 -5 -21 0 -32 10
-10 9 -19 13 -19 9 0 -4 -8 -1 -17 7 -16 14 -82 35 -84 26z"/>
<path d="M6596 3044 c-9 -25 -7 -34 8 -34 8 0 17 -9 21 -20 3 -11 9 -19 13
-18 7 1 46 -15 132 -55 25 -11 51 -22 59 -23 7 -2 18 -7 24 -13 6 -6 19 -11
28 -11 10 0 19 -5 21 -10 2 -6 13 -12 26 -13 12 0 22 -4 22 -8 0 -6 28 -20 50
-24 5 -1 74 -32 125 -55 11 -5 35 -12 54 -15 19 -3 38 -8 42 -11 4 -2 13 5 19
16 10 18 7 24 -12 21 -5 0 -8 3 -8 8 0 5 -8 7 -19 4 -10 -2 -35 5 -56 16 -21
11 -42 18 -47 15 -4 -3 -8 -2 -8 3 0 4 -15 14 -32 22 -66 28 -124 54 -168 75
-25 11 -47 21 -50 21 -3 1 -27 11 -55 24 -27 13 -58 26 -68 28 -10 1 -25 10
-33 17 -8 8 -23 18 -34 21 -11 3 -20 10 -20 15 0 15 -28 19 -34 4z"/>
<path d="M6576 2924 c-9 -23 -12 -21 36 -33 4 -1 18 -12 31 -25 14 -13 47 -32
76 -42 28 -10 51 -22 51 -26 0 -5 9 -8 19 -8 11 0 23 -4 26 -10 3 -5 15 -10
26 -10 10 0 19 -4 19 -9 0 -7 36 -22 62 -25 4 -1 13 -7 20 -13 6 -7 17 -13 23
-13 5 -1 28 -9 50 -20 22 -11 52 -19 68 -20 15 0 27 -4 27 -8 0 -15 51 -12 57
4 6 16 -15 37 -29 28 -4 -3 -8 0 -8 6 0 8 -6 8 -20 0 -14 -7 -20 -7 -20 0 0 5
-7 10 -15 10 -8 0 -15 5 -15 10 0 6 -9 10 -20 10 -11 0 -20 4 -20 9 0 5 -6 8
-12 8 -13 -2 -77 26 -148 63 -19 10 -38 19 -43 19 -4 0 -21 8 -37 16 -17 9
-30 13 -30 10 0 -4 -7 0 -15 9 -9 8 -22 13 -30 10 -8 -4 -15 -1 -15 4 0 6 -16
16 -34 23 -19 7 -33 16 -31 20 5 7 -18 19 -35 19 -4 0 -11 -7 -14 -16z"/>
<path d="M6556 2821 c-4 -6 -2 -11 3 -11 6 0 11 -7 11 -15 0 -8 6 -15 13 -15
7 0 39 -13 72 -29 33 -16 63 -28 66 -25 4 2 12 -3 19 -11 7 -8 17 -15 22 -15
10 0 81 -31 140 -60 20 -10 39 -16 42 -13 3 4 6 1 6 -5 0 -7 5 -12 10 -12 6 0
30 -9 52 -20 23 -11 55 -20 70 -20 25 0 27 2 18 19 -11 21 -38 33 -80 36 -14
1 -38 10 -55 19 -16 9 -36 16 -42 16 -7 0 -13 5 -13 10 0 5 -3 9 -7 8 -10 -2
-50 15 -126 52 -33 16 -64 27 -69 24 -4 -3 -8 -1 -8 3 0 9 -59 37 -72 34 -4 0
-5 5 -2 12 3 8 -1 14 -8 15 -7 0 -23 4 -34 7 -12 4 -25 2 -28 -4z"/>
<path d="M6550 2720 c0 -5 5 -10 11 -10 5 0 7 -5 4 -10 -4 -6 -11 -7 -17 -4
-6 4 -8 2 -5 -3 7 -12 132 -74 154 -77 7 -1 19 -8 25 -14 7 -7 20 -12 29 -12
10 0 24 -7 33 -15 8 -9 19 -16 23 -17 20 -2 114 -42 176 -73 15 -8 26 -11 23
-6 -3 5 1 11 9 15 8 3 15 10 15 16 0 6 -4 8 -10 5 -5 -3 -10 -2 -10 4 0 5 -10
13 -22 17 -21 6 -75 29 -174 75 -22 11 -46 19 -52 19 -7 0 -12 4 -12 8 0 4
-20 14 -45 21 -25 7 -45 17 -45 22 0 5 -7 9 -15 9 -8 0 -30 9 -50 20 -41 23
-45 24 -45 10z"/>
<path d="M6569 2587 c9 -12 9 -16 0 -19 -7 -2 16 -19 51 -36 35 -18 70 -30 77
-28 8 3 12 2 9 -2 -2 -4 10 -14 27 -21 18 -8 59 -26 91 -42 42 -20 64 -26 76
-19 10 5 20 6 24 3 3 -3 6 1 6 11 0 9 -4 15 -9 12 -5 -3 -14 1 -21 9 -7 8 -19
15 -26 15 -8 0 -22 4 -32 10 -48 26 -171 77 -176 73 -3 -3 -8 2 -12 11 -3 9
-11 13 -16 10 -6 -4 -13 -2 -17 3 -3 6 -19 13 -35 17 -25 6 -28 5 -17 -7z"/>
<path d="M6750 8279 c-8 -11 -14 -25 -12 -30 1 -5 -2 -9 -8 -9 -5 0 -9 -3 -8
-7 1 -7 -23 -61 -104 -231 -26 -54 -29 -64 -17 -80 12 -15 12 -16 -2 -5 -13
11 -22 -2 -68 -102 -29 -63 -49 -120 -45 -127 4 -6 3 -8 -3 -5 -6 4 -25 -25
-43 -66 -19 -39 -49 -106 -68 -147 -18 -41 -47 -103 -63 -138 -17 -34 -27 -67
-23 -74 4 -6 3 -8 -3 -5 -16 10 -46 -73 -47 -128 -1 -48 28 -135 43 -135 4 0
7 -8 8 -17 1 -10 33 -85 72 -166 39 -82 71 -153 71 -158 0 -5 5 -9 10 -9 6 0
9 -3 8 -8 -5 -12 55 -142 64 -142 5 0 7 -4 3 -9 -3 -5 0 -15 7 -23 7 -7 13
-17 13 -23 0 -5 8 -26 17 -45 45 -95 113 -243 144 -315 43 -98 66 -130 88
-122 15 6 41 53 38 70 -1 4 2 7 8 7 5 0 10 4 10 10 0 5 16 42 35 81 19 40 36
79 37 88 2 9 9 22 16 30 7 7 11 20 8 28 -3 8 -2 12 3 9 5 -3 15 9 22 27 7 17
32 74 56 125 24 51 40 98 37 104 -4 7 -2 8 4 4 11 -6 16 6 13 27 0 4 2 7 7 7
4 0 13 15 21 33 8 17 36 79 63 136 27 57 47 110 44 118 -3 8 -1 11 4 8 6 -3
14 4 19 17 5 13 26 59 46 103 29 61 38 93 39 135 0 56 -6 74 -119 315 -74 159
-98 211 -137 298 -22 51 -45 95 -50 98 -5 3 -9 8 -8 10 2 6 -16 51 -46 117
-14 31 -30 66 -35 77 -5 11 -13 27 -18 35 -5 8 -19 38 -31 67 -13 29 -28 49
-33 46 -6 -3 -7 -1 -3 6 14 22 -38 111 -64 111 -3 0 -12 -9 -20 -21z m220
-755 c0 -8 -19 -13 -24 -6 -3 5 1 9 9 9 8 0 15 -2 15 -3z m-310 -160 c0 -8
-19 -13 -24 -6 -3 5 1 9 9 9 8 0 15 -2 15 -3z m145 -313 c3 -5 2 -12 -3 -15
-5 -3 -9 1 -9 9 0 17 3 19 12 6z m-320 -10 c3 -5 2 -12 -3 -15 -5 -3 -9 1 -9
9 0 17 3 19 12 6z m-75 -57 c0 -8 -19 -13 -24 -6 -3 5 1 9 9 9 8 0 15 -2 15
-3z m0 -164 c0 -5 -2 -10 -4 -10 -3 0 -8 5 -11 10 -3 6 -1 10 4 10 6 0 11 -4
11 -10z m410 -96 c0 -8 -19 -13 -24 -6 -3 5 1 9 9 9 8 0 15 -2 15 -3z"/>
<path d="M4315 8053 c-11 -2 -27 -7 -35 -10 -16 -6 -31 -10 -72 -16 -15 -2
-34 -10 -43 -17 -10 -8 -15 -9 -15 -1 0 6 -5 11 -11 11 -5 0 -7 -5 -3 -11 5
-8 -3 -10 -24 -7 -19 3 -29 1 -25 -6 4 -5 -1 -7 -10 -3 -10 3 -17 2 -17 -4 0
-6 -4 -7 -10 -4 -5 3 -10 1 -10 -5 0 -6 -4 -9 -8 -6 -4 2 -21 -2 -37 -9 -17
-8 -49 -19 -72 -25 -24 -6 -43 -16 -43 -23 0 -9 -3 -8 -9 1 -7 11 -11 11 -23
-2 -11 -11 -18 -12 -27 -3 -8 8 -11 8 -11 -1 0 -12 -70 -46 -78 -37 -3 2 -11
-3 -18 -13 -10 -12 -13 -13 -14 -3 0 8 -8 4 -20 -10 -11 -14 -19 -18 -20 -11
0 10 -4 9 -16 -2 -8 -9 -19 -14 -23 -12 -4 3 -8 -3 -8 -12 0 -20 20 -42 38
-42 7 0 21 -8 32 -17 11 -10 17 -13 14 -6 -4 6 -3 14 3 18 5 3 10 -1 10 -10 0
-9 5 -13 10 -10 6 3 10 2 10 -3 0 -6 12 -15 28 -22 46 -19 72 -34 72 -42 0 -5
9 -8 20 -8 11 0 20 -4 20 -10 0 -5 7 -10 16 -10 8 0 13 -4 10 -9 -3 -5 3 -11
14 -14 11 -3 20 -13 20 -24 0 -15 2 -16 10 -3 8 13 10 13 10 -2 0 -9 9 -20 21
-23 16 -5 18 -9 8 -21 -7 -9 -8 -14 -3 -13 22 4 34 -2 34 -18 0 -15 2 -16 10
-3 8 13 10 12 10 -2 0 -10 5 -18 10 -18 6 0 10 -7 10 -16 0 -8 5 -12 10 -9 6
3 10 -1 10 -9 0 -9 7 -16 15 -16 14 0 20 -13 16 -34 -1 -5 4 -4 13 3 12 10 16
8 21 -8 3 -12 14 -21 23 -22 13 0 14 -2 3 -6 -10 -4 -5 -10 15 -20 16 -7 20
-11 9 -8 -19 6 -19 5 2 -17 71 -76 82 -91 77 -100 -5 -7 -2 -8 6 -3 10 6 12 4
7 -8 -4 -12 -2 -14 10 -10 11 4 14 2 9 -5 -4 -7 -2 -12 3 -12 6 0 11 -5 11
-11 0 -6 10 -20 23 -31 12 -11 16 -17 10 -13 -7 3 -13 1 -13 -4 0 -6 7 -11 15
-11 8 0 14 -6 12 -12 -1 -7 4 -12 11 -10 7 1 12 -5 10 -15 -2 -10 2 -17 8 -16
8 1 10 -6 6 -19 -3 -14 -1 -19 6 -14 8 4 12 0 12 -11 0 -10 9 -25 19 -32 11
-8 18 -22 16 -32 -2 -10 -1 -18 3 -18 19 3 23 -3 12 -17 -11 -12 -11 -15 1
-12 8 2 13 -3 12 -9 -2 -7 1 -13 6 -13 9 0 23 -33 25 -58 1 -7 7 -17 15 -21 7
-5 10 -14 7 -20 -4 -6 0 -11 9 -11 11 0 15 -5 12 -15 -4 -8 -2 -17 4 -20 5 -4
7 -11 4 -16 -4 -5 -1 -9 5 -9 6 0 9 -4 6 -9 -3 -4 1 -17 8 -27 10 -13 11 -23
4 -31 -7 -9 -7 -13 1 -13 6 0 11 -8 11 -19 0 -10 7 -24 15 -31 9 -7 14 -19 11
-26 -3 -7 -1 -16 5 -20 5 -3 7 -15 3 -26 -4 -15 -3 -18 7 -13 9 6 11 3 6 -8
-3 -10 -2 -17 3 -17 6 0 10 -13 10 -28 0 -16 3 -32 7 -36 4 -3 8 -14 10 -24 5
-33 12 -67 13 -67 1 0 3 -11 6 -25 2 -14 7 -32 11 -40 8 -19 12 -39 15 -67 1
-13 5 -23 9 -23 4 0 6 -8 5 -17 -2 -10 1 -33 6 -53 10 -35 14 -62 16 -113 1
-16 5 -26 10 -24 4 3 7 -19 6 -49 0 -30 3 -54 7 -54 4 0 6 -36 5 -80 -1 -48 2
-81 9 -84 5 -2 4 -5 -3 -5 -7 -1 -10 -5 -7 -11 3 -5 1 -10 -5 -10 -6 0 -8 -5
-5 -10 4 -6 -1 -22 -10 -37 -9 -14 -13 -23 -8 -20 5 4 10 0 10 -8 0 -8 -4 -12
-9 -9 -4 3 -8 0 -8 -5 0 -20 -4 -26 -32 -49 -16 -13 -26 -28 -23 -32 3 -5 1
-11 -5 -15 -6 -4 -8 -11 -5 -16 3 -5 -2 -6 -11 -2 -13 5 -15 3 -9 -7 5 -8 4
-11 -2 -7 -6 4 -20 -2 -32 -12 -22 -19 -29 -37 -9 -25 7 4 8 3 4 -4 -4 -7 -15
-12 -26 -12 -10 0 -21 -7 -24 -16 -4 -10 -2 -13 6 -8 7 4 8 3 4 -4 -4 -7 -12
-12 -17 -12 -6 0 -17 -6 -24 -14 -10 -10 -11 -16 -2 -25 8 -8 7 -11 -4 -11
-18 0 -19 -7 -22 -122 -1 -47 1 -84 5 -81 5 2 8 -4 9 -14 2 -39 11 -78 21 -90
6 -7 7 -13 3 -13 -4 0 -1 -8 6 -17 9 -11 10 -14 2 -9 -9 5 -11 2 -7 -8 3 -9
11 -16 16 -16 6 0 8 -6 5 -14 -3 -8 1 -20 9 -27 12 -10 12 -14 2 -20 -9 -6 -5
-11 12 -18 14 -5 19 -10 12 -10 -10 -1 -10 -5 0 -23 7 -13 11 -26 10 -30 -1
-5 3 -8 9 -8 5 0 8 -3 6 -7 -7 -12 12 -55 20 -50 5 3 9 -5 9 -16 3 -36 8 -51
24 -65 8 -8 9 -11 3 -7 -8 4 -11 1 -7 -9 3 -8 12 -17 20 -20 9 -3 13 -10 9
-15 -3 -5 -1 -12 5 -16 6 -4 8 -11 5 -16 -4 -5 -2 -9 3 -9 5 0 12 -9 15 -21 3
-12 10 -18 16 -15 5 4 13 1 17 -5 4 -8 3 -9 -4 -5 -7 4 -12 2 -12 -3 0 -6 7
-11 15 -11 9 0 12 -6 9 -15 -4 -8 -1 -22 6 -30 7 -8 9 -15 4 -15 -4 0 3 -11
15 -24 13 -14 21 -28 18 -33 -3 -4 1 -17 9 -28 8 -10 14 -14 14 -9 0 6 -4 15
-10 22 -5 7 -3 6 6 -1 8 -8 16 -23 17 -35 0 -12 7 -24 14 -26 7 -3 10 -12 6
-22 -4 -11 -3 -15 5 -10 6 3 13 2 17 -4 3 -5 0 -10 -7 -10 -8 0 -6 -5 5 -11 9
-5 17 -17 17 -25 0 -8 7 -17 15 -20 8 -4 12 -10 9 -15 -3 -5 0 -9 6 -9 6 0 9
-4 5 -9 -3 -5 -1 -12 5 -16 6 -4 7 -11 4 -17 -4 -7 -2 -8 4 -4 11 6 16 -6 13
-26 0 -5 4 -8 10 -8 5 0 7 -4 4 -10 -3 -5 0 -10 8 -10 19 0 30 -27 14 -34 -9
-3 -9 -5 1 -5 6 -1 12 -8 12 -16 0 -9 7 -18 15 -21 8 -4 15 -15 15 -26 0 -13
4 -17 13 -12 9 6 9 4 -1 -8 -10 -13 -10 -17 2 -21 9 -4 12 -14 9 -26 -3 -12
-10 -18 -15 -14 -6 3 -8 0 -6 -8 6 -17 -31 -51 -45 -42 -6 4 -8 0 -4 -10 4
-12 2 -14 -11 -10 -15 6 -16 5 -2 -12 9 -11 10 -16 3 -11 -8 4 -13 2 -13 -4 0
-6 -5 -8 -10 -5 -6 3 -13 -1 -16 -9 -3 -9 -10 -14 -14 -11 -4 3 -10 -2 -14
-10 -3 -8 -12 -12 -21 -9 -8 3 -15 1 -15 -5 0 -6 -9 -11 -21 -11 -11 0 -17 -4
-14 -10 3 -5 -3 -10 -14 -10 -12 0 -21 -5 -21 -11 0 -5 -4 -8 -8 -5 -5 3 -21
-1 -36 -9 -18 -10 -24 -10 -19 -2 5 9 3 9 -8 0 -8 -6 -27 -13 -44 -16 -16 -2
-47 -11 -67 -20 -20 -8 -39 -13 -42 -9 -3 3 -6 0 -6 -6 0 -7 -3 -11 -7 -11 -5
1 -15 1 -23 0 -13 -1 -13 -2 0 -11 13 -8 12 -10 -5 -11 -11 -1 -22 -1 -25 -1
-9 1 -12 -92 -6 -161 1 -16 -1 -30 -5 -33 -9 -5 0 -44 15 -63 8 -11 8 -13 -1
-7 -9 5 -11 2 -7 -8 3 -9 10 -16 15 -16 4 0 6 -6 3 -14 -3 -7 2 -20 10 -28 11
-12 12 -18 3 -27 -9 -10 -9 -12 3 -9 9 2 14 -4 14 -14 -1 -10 2 -18 7 -18 5 0
9 -13 9 -30 0 -17 -5 -30 -12 -30 -9 0 -8 -4 2 -10 13 -8 13 -10 -2 -10 -9 0
-20 -5 -24 -12 -4 -7 -3 -8 4 -4 7 4 12 4 12 1 0 -3 -13 -11 -29 -16 -22 -8
-28 -15 -24 -27 6 -15 4 -15 -9 -4 -9 7 -19 9 -21 5 -3 -5 -20 -10 -38 -11
-18 -2 -36 -8 -40 -14 -4 -6 -14 -8 -23 -5 -9 4 -16 2 -16 -3 0 -6 -7 -10 -16
-10 -9 0 -12 -5 -8 -12 5 -8 0 -7 -11 2 -17 13 -18 13 -13 -1 4 -9 2 -21 -4
-27 -6 -6 -6 -12 3 -17 8 -6 10 -4 4 6 -4 8 1 5 12 -6 11 -11 19 -23 16 -27
-2 -5 1 -8 7 -8 6 0 8 -4 5 -10 -3 -6 1 -7 9 -4 11 4 16 0 16 -10 0 -9 6 -16
14 -16 7 0 20 -8 27 -17 13 -17 12 -17 -6 -4 -11 8 -8 3 7 -12 15 -15 32 -27
38 -27 5 0 9 -3 9 -7 -4 -22 2 -33 13 -27 8 5 9 2 5 -9 -4 -10 -1 -17 6 -17 8
0 6 -4 -3 -10 -13 -9 -13 -10 0 -10 12 0 13 -2 1 -9 -7 -5 -11 -14 -7 -20 5
-7 1 -9 -8 -5 -15 6 -21 -6 -17 -30 1 -5 -5 -4 -13 4 -13 10 -16 10 -16 -4 0
-10 -4 -14 -10 -11 -5 3 -10 0 -10 -7 0 -9 -3 -9 -10 2 -8 13 -10 12 -10 -3 0
-10 -4 -15 -10 -12 -5 3 -10 2 -10 -4 0 -6 -7 -8 -15 -5 -9 4 -18 -2 -23 -16
-4 -12 -12 -21 -17 -19 -6 1 -15 -8 -21 -20 -6 -12 -21 -31 -33 -42 -12 -11
-19 -24 -16 -30 4 -5 -1 -9 -11 -9 -13 0 -14 -3 -4 -15 9 -11 10 -15 0 -15 -7
0 -10 -12 -8 -30 2 -18 -3 -34 -11 -39 -9 -6 -10 -10 -2 -16 8 -4 9 -11 2 -18
-5 -7 -8 -31 -7 -54 1 -24 -2 -43 -6 -43 -5 0 -7 -4 -3 -9 3 -6 -1 -16 -8 -23
-8 -7 -12 -21 -9 -32 4 -15 1 -18 -11 -13 -12 4 -14 2 -10 -10 4 -9 0 -21 -9
-27 -15 -11 -18 -17 -18 -36 0 -5 -3 -9 -8 -7 -4 1 -8 -2 -10 -8 -6 -18 -35
-45 -49 -45 -7 0 -13 -5 -13 -11 0 -5 -4 -7 -10 -4 -6 4 -7 -1 -3 -11 5 -13 3
-16 -9 -11 -10 3 -19 0 -22 -9 -3 -8 -12 -14 -20 -14 -8 0 -20 -8 -25 -17 -8
-13 -10 -14 -11 -4 0 11 -4 9 -14 -5 -8 -10 -18 -16 -22 -12 -4 4 -13 0 -21
-10 -9 -10 -11 -11 -7 -2 7 12 5 13 -8 3 -8 -7 -18 -10 -21 -6 -4 3 -7 2 -7
-3 0 -5 -15 -9 -32 -9 -18 1 -36 -3 -39 -8 -8 -11 -243 -12 -260 -1 -6 4 -41
8 -78 10 -36 2 -79 7 -96 11 -36 10 -133 9 -157 -2 -14 -5 -15 -11 -7 -27 6
-11 17 -17 25 -14 8 3 14 -1 14 -9 0 -8 9 -15 19 -15 12 0 23 -9 27 -22 7 -22
7 -22 15 -3 6 17 8 17 8 3 1 -10 8 -18 16 -18 8 0 15 -5 15 -11 0 -6 6 -9 13
-6 16 6 59 -28 49 -39 -4 -5 -3 -6 2 -2 11 9 68 -20 61 -31 -3 -5 4 -7 15 -4
12 3 20 0 20 -6 0 -7 4 -10 9 -7 5 3 12 -2 15 -11 6 -15 8 -15 16 -3 6 10 10
11 10 3 0 -7 10 -18 23 -24 19 -10 21 -10 12 2 -5 8 -3 7 7 -3 9 -10 28 -19
42 -20 14 -1 26 -6 26 -11 0 -4 4 -5 10 -2 5 3 10 1 10 -5 0 -6 5 -8 10 -5 6
3 10 2 10 -4 0 -5 13 -12 30 -16 16 -4 30 -12 30 -18 0 -7 4 -6 10 3 7 11 10
11 10 2 0 -7 5 -10 10 -7 6 3 10 -1 10 -9 0 -9 6 -13 15 -10 8 3 20 2 27 -2 7
-5 20 -10 28 -12 8 -1 22 -4 29 -6 8 -1 17 -8 19 -14 2 -6 10 -8 19 -5 8 3 19
0 24 -8 7 -11 9 -11 9 -1 0 10 4 9 16 -3 9 -9 23 -14 30 -11 8 3 14 2 14 -2 0
-4 77 -8 170 -8 94 0 170 4 170 8 0 5 4 7 9 3 5 -3 17 2 25 11 9 8 16 11 16 6
0 -14 90 21 101 39 5 8 9 10 9 5 0 -5 6 -3 13 3 8 6 16 8 20 5 3 -3 10 4 17
15 6 12 18 21 26 21 10 0 14 6 10 15 -3 8 -2 14 2 14 20 -3 33 2 27 11 -3 5 1
10 10 10 9 0 13 5 10 10 -3 6 -1 10 5 10 6 0 8 5 4 13 -5 7 0 6 11 -3 11 -9
16 -10 11 -2 -4 7 -2 12 4 12 6 0 9 3 7 8 -5 9 29 42 37 35 3 -3 4 4 1 16 -2
11 1 21 6 21 6 0 8 4 5 9 -3 5 0 11 7 14 8 3 12 18 11 36 -1 17 1 31 5 31 4 0
8 21 8 48 1 26 6 58 11 72 6 14 9 40 7 58 -1 18 2 32 8 32 6 0 8 3 4 6 -3 4 0
21 8 39 7 19 11 36 8 39 -3 3 2 8 11 12 9 3 16 12 16 20 0 8 6 11 17 7 10 -4
14 -2 9 5 -3 6 3 16 14 22 11 6 18 15 15 20 -4 6 1 7 11 3 11 -4 15 -2 11 4
-4 6 0 14 9 17 8 3 13 10 10 15 -3 5 2 8 12 7 9 0 16 4 15 11 -2 7 3 10 11 7
8 -3 17 0 21 5 3 6 11 9 16 5 11 -6 71 55 77 78 10 37 9 47 -5 52 -12 5 -13 9
-3 21 10 12 9 15 -5 15 -14 0 -15 3 -6 14 10 12 9 14 -6 12 -17 -3 -50 31 -45
46 1 5 -7 8 -18 8 -13 0 -20 7 -20 19 0 13 -8 21 -22 23 -13 2 -22 9 -20 16 1
8 -1 11 -6 9 -12 -8 -50 26 -54 48 -2 14 3 21 20 23 12 2 20 7 18 11 -3 4 1 8
9 8 8 0 12 -4 9 -9 -3 -4 2 -5 10 -2 9 3 16 9 16 13 0 7 15 11 53 12 9 0 17 6
17 12 0 7 4 6 10 -3 6 -10 10 -11 10 -2 0 6 9 12 21 12 13 0 18 4 13 13 -5 7
0 6 11 -3 11 -9 16 -10 11 -2 -6 11 0 14 21 11 3 0 10 6 15 15 5 9 14 16 19
16 6 0 7 -6 3 -12 -5 -9 -2 -9 9 1 9 7 17 19 17 25 0 6 -5 4 -10 -4 -5 -8 -10
-10 -10 -5 0 6 6 17 12 23 13 13 20 92 8 92 -4 0 -7 6 -7 13 -1 21 -8 42 -16
48 -5 3 -10 15 -11 25 -2 10 -8 18 -14 17 -6 -2 -11 5 -11 15 -1 50 -7 98 -14
109 -5 8 -3 13 4 13 9 0 9 4 -1 15 -6 8 -9 19 -5 25 3 5 2 10 -4 10 -7 0 -7 8
-1 25 6 15 6 25 0 25 -5 0 -5 13 1 32 5 17 7 34 4 36 -7 7 67 72 76 66 5 -3 9
-1 9 4 0 11 85 37 118 36 12 0 22 5 22 11 0 6 8 11 18 12 43 3 62 8 62 15 0 4
5 8 11 8 5 0 7 -6 4 -12 -4 -7 -1 -6 7 3 18 21 48 31 49 16 0 -7 5 -1 10 13 8
20 12 22 19 10 7 -10 10 -11 10 -2 0 6 7 12 16 12 8 0 13 4 10 9 -3 5 5 12 19
15 14 4 25 11 25 16 0 5 16 16 35 24 19 8 35 20 35 26 0 6 5 8 12 4 8 -5 9 -2
5 9 -4 11 -1 17 8 17 8 0 15 5 15 11 0 5 4 7 10 4 6 -4 7 1 3 12 -6 16 -5 17
12 3 10 -8 16 -10 12 -3 -4 7 -2 22 5 33 11 17 11 22 -1 29 -11 7 -11 9 0 14
10 4 10 6 2 6 -7 1 -13 8 -13 17 0 8 -4 12 -10 9 -6 -3 -7 1 -4 9 3 9 1 16 -6
16 -6 0 -8 5 -5 10 3 6 2 10 -3 10 -13 0 -43 70 -36 82 4 6 3 9 -2 6 -11 -7
-35 17 -27 26 4 3 -2 6 -13 7 -11 0 -14 3 -6 6 9 4 7 10 -8 23 -15 13 -17 19
-8 23 10 4 10 6 1 6 -7 1 -13 6 -13 11 0 6 -9 19 -20 30 -11 11 -20 29 -20 40
0 11 -9 25 -19 32 -15 9 -17 15 -9 25 8 10 7 13 -3 13 -8 0 -20 9 -27 21 -11
17 -11 20 0 14 7 -3 5 0 -4 8 -10 8 -18 22 -18 31 0 10 -4 14 -10 11 -6 -4
-10 5 -10 20 0 17 -4 24 -12 19 -8 -5 -9 -2 -5 9 3 10 2 17 -4 17 -6 0 -7 5
-4 10 3 6 -1 10 -10 10 -9 0 -13 5 -10 10 3 6 1 10 -5 10 -6 0 -9 4 -5 9 3 5
1 12 -5 16 -6 4 -7 11 -4 17 4 7 2 8 -4 4 -11 -6 -14 -1 -11 20 0 3 -8 12 -18
20 -14 11 -15 13 -3 14 13 1 13 2 0 13 -24 19 -61 97 -47 98 7 0 1 5 -13 10
-18 8 -21 12 -11 18 11 7 10 11 -5 20 -11 6 -16 11 -12 11 4 0 -1 16 -12 36
-11 19 -16 33 -11 30 5 -3 4 5 -2 18 -7 13 -16 22 -21 19 -5 -4 -7 1 -3 10 3
10 2 17 -3 17 -6 0 -9 3 -9 8 1 4 0 10 -1 15 -1 4 -3 10 -4 15 -1 4 -7 17 -14
30 -7 12 -10 22 -6 22 3 0 1 7 -6 15 -6 8 -9 18 -6 24 3 5 1 11 -4 13 -6 2
-11 14 -12 28 -1 14 -8 32 -15 41 -8 9 -13 20 -12 25 1 5 1 11 -1 14 -1 3 -4
23 -6 45 -3 22 -9 44 -14 49 -5 5 -5 17 1 28 7 12 6 18 -1 18 -8 0 -8 6 0 20
8 14 8 20 0 20 -7 0 -8 6 -1 18 6 11 6 24 0 35 -6 9 -6 17 -1 17 5 0 8 10 7
23 -2 21 13 67 26 77 3 3 9 13 12 24 4 10 13 16 22 13 9 -4 12 -1 8 8 -3 8 2
18 11 21 9 3 13 11 9 17 -4 6 0 8 10 4 12 -4 14 -2 10 11 -6 15 -5 16 12 2 13
-10 16 -11 11 -2 -5 9 -1 15 14 19 16 4 18 8 8 14 -9 6 -6 9 10 9 13 0 20 4
17 10 -3 6 1 10 10 10 9 0 14 4 11 8 -3 5 4 15 14 22 15 11 17 17 8 27 -6 8
-7 13 -2 12 21 -4 26 2 13 18 -8 9 -9 14 -3 10 7 -4 18 1 25 10 12 14 12 16
-1 8 -8 -5 -4 4 8 20 21 27 23 38 22 149 -1 67 0 126 0 131 4 26 -3 101 -10
110 -4 6 -7 21 -6 35 1 14 -1 32 -5 41 -5 9 -10 39 -13 67 -3 28 -13 76 -22
107 -8 31 -13 59 -10 62 3 4 -2 15 -11 26 -10 11 -12 17 -5 13 6 -4 12 -2 12
3 0 6 -5 11 -11 11 -5 0 -7 5 -4 10 4 6 1 18 -7 27 -11 14 -11 16 2 8 12 -6
13 -5 3 6 -7 7 -13 26 -13 41 0 15 -4 28 -9 28 -4 0 -7 11 -6 25 2 14 -1 27
-6 31 -5 3 -7 10 -4 15 4 5 2 9 -3 9 -5 0 -9 14 -10 32 0 17 -4 34 -9 37 -4 3
-10 17 -12 31 -1 14 -7 33 -13 43 -5 10 -11 27 -13 38 -2 11 -11 33 -19 50
-10 19 -11 27 -3 23 7 -3 5 0 -3 8 -14 12 -19 24 -24 56 -1 8 -9 18 -17 23
-12 7 -12 9 1 9 13 1 13 2 -1 13 -9 7 -14 18 -12 25 3 6 -1 12 -7 12 -7 0 -10
7 -6 15 3 8 -1 20 -8 27 -7 8 -12 21 -10 30 1 10 -1 17 -4 17 -20 -3 -32 2
-27 11 4 6 12 8 18 4 7 -3 3 2 -7 10 -11 9 -21 24 -22 33 -2 10 -8 19 -13 21
-6 2 -11 13 -11 23 0 11 -4 17 -10 14 -5 -3 -10 3 -10 15 0 12 -4 18 -10 15
-6 -3 -10 5 -10 19 0 14 -5 28 -12 32 -7 5 -8 3 -3 -6 5 -8 4 -11 -3 -6 -6 4
-8 14 -5 23 5 12 3 14 -7 8 -9 -6 -12 -4 -8 7 4 8 -2 20 -13 27 -11 6 -17 16
-14 21 3 6 1 10 -4 10 -6 0 -11 7 -11 16 0 8 -4 12 -10 9 -9 -5 -12 1 -9 21 0
3 -9 14 -20 23 -11 10 -18 21 -14 24 3 4 -2 9 -11 13 -9 3 -16 15 -16 26 0 15
-4 18 -17 14 -10 -4 -14 -4 -10 0 4 4 -1 13 -11 21 -11 10 -12 12 -2 8 10 -4
9 -2 -2 8 -10 8 -18 19 -18 26 0 6 -5 11 -11 11 -5 0 -7 5 -4 10 4 6 3 10 -2
9 -23 -4 -32 2 -26 18 4 11 3 14 -5 9 -7 -4 -12 -2 -12 4 0 6 -13 23 -30 37
-16 13 -30 29 -30 34 0 6 -12 22 -27 37 -15 15 -20 18 -12 7 13 -19 13 -19 -4
-6 -10 8 -16 20 -13 27 3 8 0 13 -7 11 -7 -1 -11 3 -10 10 2 7 -4 10 -12 7 -8
-4 -15 -1 -15 6 0 14 -25 40 -38 40 -5 0 -16 8 -23 18 -12 15 -12 16 1 7 9 -5
7 -2 -5 7 -11 10 -29 26 -39 35 -11 10 -16 12 -11 5 6 -11 3 -11 -14 0 -12 7
-21 18 -21 25 0 6 -5 15 -12 19 -7 5 -8 3 -3 -7 8 -12 6 -12 -8 0 -9 7 -14 18
-10 23 3 6 0 8 -8 6 -8 -3 -21 -2 -29 2 -8 3 -24 5 -35 3z m397 -2535 c-7 -7
-12 -8 -12 -2 0 14 12 26 19 19 2 -3 -1 -11 -7 -17z"/>
<path d="M3265 7949 c-4 -6 -5 -12 -2 -15 2 -3 7 2 10 11 7 17 1 20 -8 4z"/>
<path d="M4690 7756 c0 -2 8 -10 18 -17 15 -13 16 -12 3 4 -13 16 -21 21 -21
13z"/>
<path d="M3474 6031 c20 -22 26 -25 26 -13 0 4 -10 13 -22 21 -23 14 -23 14
-4 -8z"/>
<path d="M7624 5309 c-5 -8 -3 -10 7 -4 10 6 9 3 -2 -11 -18 -21 -33 -55 -31
-66 1 -5 -2 -8 -8 -8 -5 0 -10 -9 -10 -20 0 -11 -4 -20 -9 -20 -6 0 -8 -9 -6
-20 2 -11 0 -18 -6 -15 -5 4 -9 1 -9 -4 0 -22 -2 -26 -17 -43 -9 -10 -13 -18
-9 -18 4 0 0 -10 -8 -22 -9 -12 -16 -30 -16 -40 0 -10 -5 -18 -12 -18 -6 0 -8
-3 -5 -6 4 -4 -2 -23 -13 -43 -15 -29 -90 -195 -130 -286 -4 -11 -22 -51 -40
-88 -54 -118 -98 -227 -92 -227 4 0 2 -4 -4 -8 -13 -8 -67 -120 -67 -139 0 -7
-4 -13 -9 -13 -4 0 -8 -9 -8 -20 0 -11 -5 -20 -11 -20 -6 0 -9 -5 -7 -12 3 -7
-8 -25 -24 -42 -15 -16 -26 -31 -24 -34 3 -2 -4 -14 -15 -26 -23 -23 -72 -122
-72 -143 0 -7 -4 -13 -7 -13 -4 0 -13 -15 -20 -32 -7 -18 -21 -51 -31 -74 -11
-22 -19 -45 -19 -51 0 -6 20 -17 45 -24 25 -7 45 -17 45 -21 0 -4 9 -8 20 -8
11 0 20 -4 20 -9 0 -5 11 -11 25 -13 20 -4 26 0 36 26 7 17 11 34 10 39 0 4 4
7 9 7 6 0 10 7 10 15 0 8 9 30 19 49 11 19 17 37 14 40 -4 3 0 6 7 6 7 0 10 3
7 6 -3 4 0 16 8 26 7 11 11 27 8 36 -4 10 -2 13 5 8 8 -4 10 -2 6 7 -3 8 1 31
10 50 11 27 11 37 3 41 -9 3 -9 5 1 5 6 1 12 9 12 19 0 10 7 27 15 38 8 10 15
29 15 42 0 12 5 22 11 22 6 0 9 7 5 15 -3 8 -1 15 4 15 5 0 12 9 15 21 4 12
19 46 33 77 14 32 26 59 27 62 1 3 14 32 29 65 34 74 59 129 79 175 8 19 32
70 51 113 20 42 36 79 36 81 0 3 16 40 36 83 60 128 73 161 67 167 -4 3 -2 6
4 6 6 0 16 15 23 33 31 79 44 107 53 107 4 0 6 4 3 8 -3 5 2 21 9 36 8 16 13
32 10 36 -3 5 1 11 7 13 10 4 9 6 -1 6 -11 1 -11 4 0 18 10 11 10 14 2 9 -7
-4 -13 -2 -13 3 0 6 -7 11 -16 11 -8 0 -12 5 -9 10 3 6 -5 10 -19 10 -13 0
-31 3 -39 6 -8 3 -18 0 -23 -7z"/>
<path d="M7289 3804 c-1 -2 -2 -7 -3 -11 -1 -5 -12 -30 -25 -58 -13 -27 -30
-66 -38 -85 -8 -19 -19 -43 -24 -52 -8 -16 9 -29 35 -27 5 0 12 -3 15 -8 8
-11 58 -33 76 -33 13 0 31 36 27 53 -1 4 3 7 8 7 6 0 10 5 10 11 0 6 14 40 31
76 24 51 28 67 18 74 -7 4 -17 5 -21 3 -4 -3 -8 0 -8 6 0 6 -4 8 -10 5 -5 -3
-10 -1 -10 4 0 6 -6 11 -12 11 -7 0 -25 7 -40 14 -16 8 -29 13 -29 10z"/>
<path d="M7460 3626 c0 -8 -13 -40 -29 -72 -27 -55 -28 -59 -12 -71 10 -6 30
-15 44 -18 15 -4 27 -12 27 -18 0 -6 3 -7 7 -4 3 4 17 0 29 -8 25 -16 25 -16
55 42 12 23 13 35 5 44 -8 8 -8 10 0 6 10 -6 42 39 33 47 -9 7 -141 66 -150
66 -5 0 -9 -6 -9 -14z"/>
<path d="M6513 3524 c-7 -7 -13 -18 -13 -24 0 -6 -4 -18 -9 -28 -9 -16 -49
-103 -84 -182 -8 -19 -31 -70 -51 -113 -20 -43 -36 -83 -36 -88 0 -5 -5 -9
-11 -9 -5 0 -8 -4 -5 -9 6 -10 -16 -61 -26 -61 -5 0 -8 -9 -8 -19 0 -10 -14
-45 -30 -76 -17 -32 -28 -60 -26 -63 3 -2 -2 -11 -10 -19 -8 -8 -12 -19 -9
-24 4 -5 1 -9 -4 -9 -6 0 -11 -6 -11 -12 -1 -7 -14 -40 -29 -73 -23 -48 -27
-64 -18 -80 9 -19 9 -19 -8 -5 -18 14 -18 13 0 -12 11 -15 24 -26 29 -25 4 2
24 39 43 82 19 44 44 97 55 118 10 20 16 37 12 37 -4 0 1 9 11 20 10 11 15 20
12 20 -3 0 7 26 22 58 28 54 63 131 66 142 0 3 9 20 18 37 10 18 18 36 19 40
5 29 12 43 20 43 5 0 7 4 4 9 -3 4 1 17 9 27 8 10 15 25 15 33 0 8 8 23 18 34
9 11 12 17 6 14 -6 -4 1 18 16 47 16 30 26 57 23 60 -4 3 -1 6 5 6 7 0 12 9
12 20 0 11 5 20 11 20 5 0 8 4 4 9 -3 5 -1 12 5 16 6 4 8 11 5 16 -4 5 -1 9 4
9 6 0 11 7 11 15 0 17 -16 20 -25 5 -4 -7 -11 -8 -18 -1 -8 6 -16 4 -24 -5z"/>
<path d="M7595 3022 c-10 -26 -20 -54 -22 -62 -1 -8 -7 -16 -12 -18 -6 -2 -11
-12 -11 -22 0 -10 -5 -22 -10 -25 -6 -4 -8 -11 -5 -16 4 -5 2 -9 -2 -9 -8 0
-33 -57 -35 -77 0 -5 -9 -20 -20 -35 -11 -16 -17 -28 -14 -28 3 0 -8 -25 -25
-56 -16 -31 -26 -60 -23 -65 3 -5 2 -9 -3 -9 -13 0 -36 -59 -29 -76 3 -8 2
-12 -4 -9 -8 5 -27 -25 -35 -55 0 -3 -18 -41 -39 -85 -20 -44 -38 -88 -39 -97
-1 -10 -7 -20 -15 -23 -7 -3 -11 -9 -8 -13 3 -5 -1 -18 -9 -28 -8 -10 -15 -27
-15 -36 0 -10 -4 -18 -10 -18 -5 0 -10 -9 -10 -20 0 -21 15 -27 25 -10 5 8 11
7 21 -1 11 -9 14 -8 14 5 0 9 4 16 8 16 11 0 32 61 25 73 -3 6 -1 7 4 4 11 -7
38 48 34 67 -1 5 4 13 11 17 7 5 13 12 14 16 2 26 17 63 25 63 5 0 9 9 9 19 0
11 5 23 10 26 6 4 8 11 5 16 -4 5 -1 9 4 9 6 0 11 9 11 20 0 11 4 20 8 20 4 0
8 9 9 20 1 11 9 27 18 36 9 9 14 23 11 30 -3 8 -1 14 4 14 6 0 10 5 10 10 0 6
11 33 25 62 14 28 25 58 25 65 0 7 5 13 10 13 6 0 10 6 10 13 0 8 6 27 14 43
30 60 77 166 79 177 1 7 6 15 12 19 6 5 6 11 -2 19 -6 6 -9 18 -6 27 4 10 2
13 -5 8 -7 -4 -12 -2 -12 3 0 25 -16 8 -35 -37z"/>
<path d="M4276 2593 c-6 -14 -5 -15 5 -6 7 7 10 15 7 18 -3 3 -9 -2 -12 -12z"/>
<path d="M4086 2113 c-6 -14 -5 -15 5 -6 7 7 10 15 7 18 -3 3 -9 -2 -12 -12z"/>
<path d="M651 1170 l-1 -270 60 0 60 0 -2 33 c0 17 0 58 1 89 l1 57 76 -2 76
-1 42 -49 c111 -134 102 -127 167 -127 55 0 59 2 59 23 0 13 -23 48 -56 84
l-55 63 38 15 c61 24 76 59 75 175 0 76 -4 104 -18 124 -33 52 -54 56 -297 56
l-225 0 -1 -270z m416 147 c5 -3 9 -32 8 -64 l-1 -58 -152 0 c-84 -1 -152 3
-153 7 -1 4 -1 17 -1 28 0 89 0 89 40 92 63 5 248 2 259 -5z"/>
<path d="M1771 1170 l-1 -270 59 0 59 0 0 270 0 270 -58 0 -58 0 -1 -270z"/>
<path d="M1957 1433 c-3 -5 -5 -126 -5 -270 l1 -263 59 0 59 0 -1 63 c-1 34
-1 74 -1 88 l1 26 169 0 c142 0 174 3 195 17 49 31 57 56 57 166 0 87 -3 105
-22 131 -12 17 -32 35 -46 40 -29 11 -460 12 -466 2z m398 -112 c18 -1 20 -8
20 -64 l1 -63 -147 1 c-81 0 -150 3 -154 6 -10 11 -8 111 3 118 8 5 177 6 277
2z"/>
<path d="M2550 1170 l0 -270 60 0 60 0 0 176 0 175 88 -105 c48 -58 92 -105
97 -105 6 0 48 47 95 103 l85 103 3 -174 2 -173 60 0 60 0 0 270 0 270 -65 0
-64 0 -85 -101 c-46 -55 -87 -101 -91 -101 -4 0 -45 46 -91 101 l-85 101 -64
0 -65 0 0 -270z"/>
<path d="M3274 1406 l-34 -34 0 -236 0 -236 60 0 60 0 0 85 0 85 150 0 150 0
0 -85 0 -85 65 0 65 0 0 225 c0 328 12 315 -278 315 l-204 0 -34 -34z m386
-151 l0 -65 -150 0 -150 0 0 65 0 65 150 0 150 0 0 -65z"/>
<path d="M3870 1170 l0 -270 60 0 60 0 0 85 0 85 78 -1 77 0 69 -85 69 -84 68
0 c61 0 69 2 69 19 0 10 -22 45 -49 78 -28 32 -51 61 -53 66 -2 4 13 15 32 25
51 25 70 70 70 170 0 94 -15 140 -53 165 -23 15 -57 17 -262 17 l-235 0 0
-270z m420 90 l0 -60 -150 0 -150 0 0 60 0 60 150 0 150 0 0 -60z"/>
<path d="M4521 1409 c-30 -30 -31 -33 -31 -124 0 -167 12 -175 249 -175 l171
0 0 -45 0 -45 -150 0 -150 0 0 25 c0 24 -3 25 -60 25 l-60 0 0 -46 c0 -51 12
-81 44 -106 18 -15 47 -18 228 -18 l206 0 31 31 c31 30 31 32 31 132 -1 160
-11 167 -249 167 l-171 0 0 45 0 45 150 0 150 0 0 -25 c0 -24 3 -25 60 -25
l60 0 0 54 c0 47 -4 58 -31 85 l-31 31 -208 0 -208 0 -31 -31z"/>
<path d="M1353 1332 c-39 -6 -83 -59 -84 -100 -4 -198 0 -255 19 -281 33 -44
57 -51 200 -51 208 0 222 14 222 218 0 203 -12 216 -204 217 -72 0 -141 -1
-153 -3z m242 -217 l0 -100 -105 0 -105 0 -1 103 -2 103 107 -3 106 -3 0 -100z"/>
<path d="M7675 1260 c-3 -5 -1 -10 4 -10 6 0 11 5 11 10 0 6 -2 10 -4 10 -3 0
-8 -4 -11 -10z"/>
</g>
</svg>
